<?xml version="1.0" encoding="utf-8" standalone="no"?>
<!DOCTYPE svg PUBLIC "-//W3C//DTD SVG 1.1//EN"
  "http://www.w3.org/Graphics/SVG/1.1/DTD/svg11.dtd">
<svg xmlns:xlink="http://www.w3.org/1999/xlink" width="792pt" height="554.4pt" viewBox="0 0 792 554.4" xmlns="http://www.w3.org/2000/svg" version="1.1">
 <metadata>
  <rdf:RDF xmlns:dc="http://purl.org/dc/elements/1.1/" xmlns:cc="http://creativecommons.org/ns#" xmlns:rdf="http://www.w3.org/1999/02/22-rdf-syntax-ns#">
   <cc:Work>
    <dc:type rdf:resource="http://purl.org/dc/dcmitype/StillImage"/>
    <dc:date>2025-07-29T19:42:47.316777</dc:date>
    <dc:format>image/svg+xml</dc:format>
    <dc:creator>
     <cc:Agent>
      <dc:title>Matplotlib v3.5.3, https://matplotlib.org/</dc:title>
     </cc:Agent>
    </dc:creator>
   </cc:Work>
  </rdf:RDF>
 </metadata>
 <defs>
  <style type="text/css">*{stroke-linejoin: round; stroke-linecap: butt}</style>
 </defs>
 <g id="figure_1">
  <g id="patch_1">
   <path d="M 0 554.4 
L 792 554.4 
L 792 0 
L 0 0 
z
" style="fill: #ffffff"/>
  </g>
  <g id="axes_1">
   <g id="patch_2">
    <path d="M 38.27 526.52 
L 781.2 526.52 
L 781.2 26.88 
L 38.27 26.88 
z
" style="fill: #ffffff"/>
   </g>
   <g id="matplotlib.axis_1">
    <g id="xtick_1">
     <g id="line2d_1">
      <defs>
       <path id="m570b92a130" d="M 0 0 
L 0 3.5 
" style="stroke: #000000; stroke-width: 0.8"/>
      </defs>
      <g>
       <use xlink:href="#m570b92a130" x="162.091667" y="526.52" style="stroke: #000000; stroke-width: 0.8"/>
      </g>
     </g>
     <g id="text_1">
      <!-- Blades Europe -->
      <g transform="translate(121.659635 541.118438)scale(0.1 -0.1)">
       <defs>
        <path id="DejaVuSans-Bold-42" d="M 2456 2859 
Q 2741 2859 2887 2984 
Q 3034 3109 3034 3353 
Q 3034 3594 2887 3720 
Q 2741 3847 2456 3847 
L 1791 3847 
L 1791 2859 
L 2456 2859 
z
M 2497 819 
Q 2859 819 3042 972 
Q 3225 1125 3225 1434 
Q 3225 1738 3044 1889 
Q 2863 2041 2497 2041 
L 1791 2041 
L 1791 819 
L 2497 819 
z
M 3616 2497 
Q 4003 2384 4215 2081 
Q 4428 1778 4428 1338 
Q 4428 663 3972 331 
Q 3516 0 2584 0 
L 588 0 
L 588 4666 
L 2394 4666 
Q 3366 4666 3802 4372 
Q 4238 4078 4238 3431 
Q 4238 3091 4078 2852 
Q 3919 2613 3616 2497 
z
" transform="scale(0.015625)"/>
        <path id="DejaVuSans-Bold-6c" d="M 538 4863 
L 1656 4863 
L 1656 0 
L 538 0 
L 538 4863 
z
" transform="scale(0.015625)"/>
        <path id="DejaVuSans-Bold-61" d="M 2106 1575 
Q 1756 1575 1579 1456 
Q 1403 1338 1403 1106 
Q 1403 894 1545 773 
Q 1688 653 1941 653 
Q 2256 653 2472 879 
Q 2688 1106 2688 1447 
L 2688 1575 
L 2106 1575 
z
M 3816 1997 
L 3816 0 
L 2688 0 
L 2688 519 
Q 2463 200 2181 54 
Q 1900 -91 1497 -91 
Q 953 -91 614 226 
Q 275 544 275 1050 
Q 275 1666 698 1953 
Q 1122 2241 2028 2241 
L 2688 2241 
L 2688 2328 
Q 2688 2594 2478 2717 
Q 2269 2841 1825 2841 
Q 1466 2841 1156 2769 
Q 847 2697 581 2553 
L 581 3406 
Q 941 3494 1303 3539 
Q 1666 3584 2028 3584 
Q 2975 3584 3395 3211 
Q 3816 2838 3816 1997 
z
" transform="scale(0.015625)"/>
        <path id="DejaVuSans-Bold-64" d="M 2919 2988 
L 2919 4863 
L 4044 4863 
L 4044 0 
L 2919 0 
L 2919 506 
Q 2688 197 2409 53 
Q 2131 -91 1766 -91 
Q 1119 -91 703 423 
Q 288 938 288 1747 
Q 288 2556 703 3070 
Q 1119 3584 1766 3584 
Q 2128 3584 2408 3439 
Q 2688 3294 2919 2988 
z
M 2181 722 
Q 2541 722 2730 984 
Q 2919 1247 2919 1747 
Q 2919 2247 2730 2509 
Q 2541 2772 2181 2772 
Q 1825 2772 1636 2509 
Q 1447 2247 1447 1747 
Q 1447 1247 1636 984 
Q 1825 722 2181 722 
z
" transform="scale(0.015625)"/>
        <path id="DejaVuSans-Bold-65" d="M 4031 1759 
L 4031 1441 
L 1416 1441 
Q 1456 1047 1700 850 
Q 1944 653 2381 653 
Q 2734 653 3104 758 
Q 3475 863 3866 1075 
L 3866 213 
Q 3469 63 3072 -14 
Q 2675 -91 2278 -91 
Q 1328 -91 801 392 
Q 275 875 275 1747 
Q 275 2603 792 3093 
Q 1309 3584 2216 3584 
Q 3041 3584 3536 3087 
Q 4031 2591 4031 1759 
z
M 2881 2131 
Q 2881 2450 2695 2645 
Q 2509 2841 2209 2841 
Q 1884 2841 1681 2658 
Q 1478 2475 1428 2131 
L 2881 2131 
z
" transform="scale(0.015625)"/>
        <path id="DejaVuSans-Bold-73" d="M 3272 3391 
L 3272 2541 
Q 2913 2691 2578 2766 
Q 2244 2841 1947 2841 
Q 1628 2841 1473 2761 
Q 1319 2681 1319 2516 
Q 1319 2381 1436 2309 
Q 1553 2238 1856 2203 
L 2053 2175 
Q 2913 2066 3209 1816 
Q 3506 1566 3506 1031 
Q 3506 472 3093 190 
Q 2681 -91 1863 -91 
Q 1516 -91 1145 -36 
Q 775 19 384 128 
L 384 978 
Q 719 816 1070 734 
Q 1422 653 1784 653 
Q 2113 653 2278 743 
Q 2444 834 2444 1013 
Q 2444 1163 2330 1236 
Q 2216 1309 1875 1350 
L 1678 1375 
Q 931 1469 631 1722 
Q 331 1975 331 2491 
Q 331 3047 712 3315 
Q 1094 3584 1881 3584 
Q 2191 3584 2531 3537 
Q 2872 3491 3272 3391 
z
" transform="scale(0.015625)"/>
        <path id="DejaVuSans-Bold-20" transform="scale(0.015625)"/>
        <path id="DejaVuSans-Bold-45" d="M 588 4666 
L 3834 4666 
L 3834 3756 
L 1791 3756 
L 1791 2888 
L 3713 2888 
L 3713 1978 
L 1791 1978 
L 1791 909 
L 3903 909 
L 3903 0 
L 588 0 
L 588 4666 
z
" transform="scale(0.015625)"/>
        <path id="DejaVuSans-Bold-75" d="M 500 1363 
L 500 3500 
L 1625 3500 
L 1625 3150 
Q 1625 2866 1622 2436 
Q 1619 2006 1619 1863 
Q 1619 1441 1641 1255 
Q 1663 1069 1716 984 
Q 1784 875 1895 815 
Q 2006 756 2150 756 
Q 2500 756 2700 1025 
Q 2900 1294 2900 1772 
L 2900 3500 
L 4019 3500 
L 4019 0 
L 2900 0 
L 2900 506 
Q 2647 200 2364 54 
Q 2081 -91 1741 -91 
Q 1134 -91 817 281 
Q 500 653 500 1363 
z
" transform="scale(0.015625)"/>
        <path id="DejaVuSans-Bold-72" d="M 3138 2547 
Q 2991 2616 2845 2648 
Q 2700 2681 2553 2681 
Q 2122 2681 1889 2404 
Q 1656 2128 1656 1613 
L 1656 0 
L 538 0 
L 538 3500 
L 1656 3500 
L 1656 2925 
Q 1872 3269 2151 3426 
Q 2431 3584 2822 3584 
Q 2878 3584 2943 3579 
Q 3009 3575 3134 3559 
L 3138 2547 
z
" transform="scale(0.015625)"/>
        <path id="DejaVuSans-Bold-6f" d="M 2203 2784 
Q 1831 2784 1636 2517 
Q 1441 2250 1441 1747 
Q 1441 1244 1636 976 
Q 1831 709 2203 709 
Q 2569 709 2762 976 
Q 2956 1244 2956 1747 
Q 2956 2250 2762 2517 
Q 2569 2784 2203 2784 
z
M 2203 3584 
Q 3106 3584 3614 3096 
Q 4122 2609 4122 1747 
Q 4122 884 3614 396 
Q 3106 -91 2203 -91 
Q 1297 -91 786 396 
Q 275 884 275 1747 
Q 275 2609 786 3096 
Q 1297 3584 2203 3584 
z
" transform="scale(0.015625)"/>
        <path id="DejaVuSans-Bold-70" d="M 1656 506 
L 1656 -1331 
L 538 -1331 
L 538 3500 
L 1656 3500 
L 1656 2988 
Q 1888 3294 2169 3439 
Q 2450 3584 2816 3584 
Q 3463 3584 3878 3070 
Q 4294 2556 4294 1747 
Q 4294 938 3878 423 
Q 3463 -91 2816 -91 
Q 2450 -91 2169 54 
Q 1888 200 1656 506 
z
M 2400 2772 
Q 2041 2772 1848 2508 
Q 1656 2244 1656 1747 
Q 1656 1250 1848 986 
Q 2041 722 2400 722 
Q 2759 722 2948 984 
Q 3138 1247 3138 1747 
Q 3138 2247 2948 2509 
Q 2759 2772 2400 2772 
z
" transform="scale(0.015625)"/>
       </defs>
       <use xlink:href="#DejaVuSans-Bold-42"/>
       <use xlink:href="#DejaVuSans-Bold-6c" x="76.220703"/>
       <use xlink:href="#DejaVuSans-Bold-61" x="110.498047"/>
       <use xlink:href="#DejaVuSans-Bold-64" x="177.978516"/>
       <use xlink:href="#DejaVuSans-Bold-65" x="249.560547"/>
       <use xlink:href="#DejaVuSans-Bold-73" x="317.382812"/>
       <use xlink:href="#DejaVuSans-Bold-20" x="376.904297"/>
       <use xlink:href="#DejaVuSans-Bold-45" x="411.71875"/>
       <use xlink:href="#DejaVuSans-Bold-75" x="480.029297"/>
       <use xlink:href="#DejaVuSans-Bold-72" x="551.220703"/>
       <use xlink:href="#DejaVuSans-Bold-6f" x="600.537109"/>
       <use xlink:href="#DejaVuSans-Bold-70" x="669.238281"/>
       <use xlink:href="#DejaVuSans-Bold-65" x="740.820312"/>
      </g>
     </g>
    </g>
    <g id="xtick_2">
     <g id="line2d_2">
      <g>
       <use xlink:href="#m570b92a130" x="409.735" y="526.52" style="stroke: #000000; stroke-width: 0.8"/>
      </g>
     </g>
     <g id="text_2">
      <!-- Blades US East Coast -->
      <g transform="translate(350.006875 541.118438)scale(0.1 -0.1)">
       <defs>
        <path id="DejaVuSans-Bold-55" d="M 588 4666 
L 1791 4666 
L 1791 1869 
Q 1791 1291 1980 1042 
Q 2169 794 2597 794 
Q 3028 794 3217 1042 
Q 3406 1291 3406 1869 
L 3406 4666 
L 4609 4666 
L 4609 1869 
Q 4609 878 4112 393 
Q 3616 -91 2597 -91 
Q 1581 -91 1084 393 
Q 588 878 588 1869 
L 588 4666 
z
" transform="scale(0.015625)"/>
        <path id="DejaVuSans-Bold-53" d="M 3834 4519 
L 3834 3531 
Q 3450 3703 3084 3790 
Q 2719 3878 2394 3878 
Q 1963 3878 1756 3759 
Q 1550 3641 1550 3391 
Q 1550 3203 1689 3098 
Q 1828 2994 2194 2919 
L 2706 2816 
Q 3484 2659 3812 2340 
Q 4141 2022 4141 1434 
Q 4141 663 3683 286 
Q 3225 -91 2284 -91 
Q 1841 -91 1394 -6 
Q 947 78 500 244 
L 500 1259 
Q 947 1022 1364 901 
Q 1781 781 2169 781 
Q 2563 781 2772 912 
Q 2981 1044 2981 1288 
Q 2981 1506 2839 1625 
Q 2697 1744 2272 1838 
L 1806 1941 
Q 1106 2091 782 2419 
Q 459 2747 459 3303 
Q 459 4000 909 4375 
Q 1359 4750 2203 4750 
Q 2588 4750 2994 4692 
Q 3400 4634 3834 4519 
z
" transform="scale(0.015625)"/>
        <path id="DejaVuSans-Bold-74" d="M 1759 4494 
L 1759 3500 
L 2913 3500 
L 2913 2700 
L 1759 2700 
L 1759 1216 
Q 1759 972 1856 886 
Q 1953 800 2241 800 
L 2816 800 
L 2816 0 
L 1856 0 
Q 1194 0 917 276 
Q 641 553 641 1216 
L 641 2700 
L 84 2700 
L 84 3500 
L 641 3500 
L 641 4494 
L 1759 4494 
z
" transform="scale(0.015625)"/>
        <path id="DejaVuSans-Bold-43" d="M 4288 256 
Q 3956 84 3597 -3 
Q 3238 -91 2847 -91 
Q 1681 -91 1000 561 
Q 319 1213 319 2328 
Q 319 3447 1000 4098 
Q 1681 4750 2847 4750 
Q 3238 4750 3597 4662 
Q 3956 4575 4288 4403 
L 4288 3438 
Q 3953 3666 3628 3772 
Q 3303 3878 2944 3878 
Q 2300 3878 1931 3465 
Q 1563 3053 1563 2328 
Q 1563 1606 1931 1193 
Q 2300 781 2944 781 
Q 3303 781 3628 887 
Q 3953 994 4288 1222 
L 4288 256 
z
" transform="scale(0.015625)"/>
       </defs>
       <use xlink:href="#DejaVuSans-Bold-42"/>
       <use xlink:href="#DejaVuSans-Bold-6c" x="76.220703"/>
       <use xlink:href="#DejaVuSans-Bold-61" x="110.498047"/>
       <use xlink:href="#DejaVuSans-Bold-64" x="177.978516"/>
       <use xlink:href="#DejaVuSans-Bold-65" x="249.560547"/>
       <use xlink:href="#DejaVuSans-Bold-73" x="317.382812"/>
       <use xlink:href="#DejaVuSans-Bold-20" x="376.904297"/>
       <use xlink:href="#DejaVuSans-Bold-55" x="411.71875"/>
       <use xlink:href="#DejaVuSans-Bold-53" x="492.919922"/>
       <use xlink:href="#DejaVuSans-Bold-20" x="564.941406"/>
       <use xlink:href="#DejaVuSans-Bold-45" x="599.755859"/>
       <use xlink:href="#DejaVuSans-Bold-61" x="668.066406"/>
       <use xlink:href="#DejaVuSans-Bold-73" x="735.546875"/>
       <use xlink:href="#DejaVuSans-Bold-74" x="795.068359"/>
       <use xlink:href="#DejaVuSans-Bold-20" x="842.871094"/>
       <use xlink:href="#DejaVuSans-Bold-43" x="877.685547"/>
       <use xlink:href="#DejaVuSans-Bold-6f" x="951.074219"/>
       <use xlink:href="#DejaVuSans-Bold-61" x="1019.775391"/>
       <use xlink:href="#DejaVuSans-Bold-73" x="1087.255859"/>
       <use xlink:href="#DejaVuSans-Bold-74" x="1146.777344"/>
      </g>
     </g>
    </g>
    <g id="xtick_3">
     <g id="line2d_3">
      <g>
       <use xlink:href="#m570b92a130" x="657.378333" y="526.52" style="stroke: #000000; stroke-width: 0.8"/>
      </g>
     </g>
     <g id="text_3">
      <!-- Blades US Great Lakes -->
      <g transform="translate(593.804115 541.118438)scale(0.1 -0.1)">
       <defs>
        <path id="DejaVuSans-Bold-47" d="M 4781 347 
Q 4331 128 3847 18 
Q 3363 -91 2847 -91 
Q 1681 -91 1000 561 
Q 319 1213 319 2328 
Q 319 3456 1012 4103 
Q 1706 4750 2913 4750 
Q 3378 4750 3804 4662 
Q 4231 4575 4609 4403 
L 4609 3438 
Q 4219 3659 3833 3768 
Q 3447 3878 3059 3878 
Q 2341 3878 1952 3476 
Q 1563 3075 1563 2328 
Q 1563 1588 1938 1184 
Q 2313 781 3003 781 
Q 3191 781 3352 804 
Q 3513 828 3641 878 
L 3641 1784 
L 2906 1784 
L 2906 2591 
L 4781 2591 
L 4781 347 
z
" transform="scale(0.015625)"/>
        <path id="DejaVuSans-Bold-4c" d="M 588 4666 
L 1791 4666 
L 1791 909 
L 3903 909 
L 3903 0 
L 588 0 
L 588 4666 
z
" transform="scale(0.015625)"/>
        <path id="DejaVuSans-Bold-6b" d="M 538 4863 
L 1656 4863 
L 1656 2216 
L 2944 3500 
L 4244 3500 
L 2534 1894 
L 4378 0 
L 3022 0 
L 1656 1459 
L 1656 0 
L 538 0 
L 538 4863 
z
" transform="scale(0.015625)"/>
       </defs>
       <use xlink:href="#DejaVuSans-Bold-42"/>
       <use xlink:href="#DejaVuSans-Bold-6c" x="76.220703"/>
       <use xlink:href="#DejaVuSans-Bold-61" x="110.498047"/>
       <use xlink:href="#DejaVuSans-Bold-64" x="177.978516"/>
       <use xlink:href="#DejaVuSans-Bold-65" x="249.560547"/>
       <use xlink:href="#DejaVuSans-Bold-73" x="317.382812"/>
       <use xlink:href="#DejaVuSans-Bold-20" x="376.904297"/>
       <use xlink:href="#DejaVuSans-Bold-55" x="411.71875"/>
       <use xlink:href="#DejaVuSans-Bold-53" x="492.919922"/>
       <use xlink:href="#DejaVuSans-Bold-20" x="564.941406"/>
       <use xlink:href="#DejaVuSans-Bold-47" x="599.755859"/>
       <use xlink:href="#DejaVuSans-Bold-72" x="681.835938"/>
       <use xlink:href="#DejaVuSans-Bold-65" x="731.152344"/>
       <use xlink:href="#DejaVuSans-Bold-61" x="798.974609"/>
       <use xlink:href="#DejaVuSans-Bold-74" x="866.455078"/>
       <use xlink:href="#DejaVuSans-Bold-20" x="914.257812"/>
       <use xlink:href="#DejaVuSans-Bold-4c" x="949.072266"/>
       <use xlink:href="#DejaVuSans-Bold-61" x="1012.792969"/>
       <use xlink:href="#DejaVuSans-Bold-6b" x="1080.273438"/>
       <use xlink:href="#DejaVuSans-Bold-65" x="1144.152344"/>
       <use xlink:href="#DejaVuSans-Bold-73" x="1211.974609"/>
      </g>
     </g>
    </g>
   </g>
   <g id="matplotlib.axis_2">
    <g id="ytick_1">
     <g id="line2d_4">
      <path d="M 38.27 526.52 
L 781.2 526.52 
" clip-path="url(#pf2c14d096f)" style="fill: none; stroke: #b0b0b0; stroke-width: 0.8; stroke-linecap: square"/>
     </g>
     <g id="line2d_5">
      <defs>
       <path id="mab86409fa7" d="M 0 0 
L -3.5 0 
" style="stroke: #000000; stroke-width: 0.8"/>
      </defs>
      <g>
       <use xlink:href="#mab86409fa7" x="38.27" y="526.52" style="stroke: #000000; stroke-width: 0.8"/>
      </g>
     </g>
     <g id="text_4">
      <!-- 0 -->
      <g transform="translate(24.9075 530.319219)scale(0.1 -0.1)">
       <defs>
        <path id="DejaVuSans-30" d="M 2034 4250 
Q 1547 4250 1301 3770 
Q 1056 3291 1056 2328 
Q 1056 1369 1301 889 
Q 1547 409 2034 409 
Q 2525 409 2770 889 
Q 3016 1369 3016 2328 
Q 3016 3291 2770 3770 
Q 2525 4250 2034 4250 
z
M 2034 4750 
Q 2819 4750 3233 4129 
Q 3647 3509 3647 2328 
Q 3647 1150 3233 529 
Q 2819 -91 2034 -91 
Q 1250 -91 836 529 
Q 422 1150 422 2328 
Q 422 3509 836 4129 
Q 1250 4750 2034 4750 
z
" transform="scale(0.015625)"/>
       </defs>
       <use xlink:href="#DejaVuSans-30"/>
      </g>
     </g>
    </g>
    <g id="ytick_2">
     <g id="line2d_6">
      <path d="M 38.27 423.501443 
L 781.2 423.501443 
" clip-path="url(#pf2c14d096f)" style="fill: none; stroke: #b0b0b0; stroke-width: 0.8; stroke-linecap: square"/>
     </g>
     <g id="line2d_7">
      <g>
       <use xlink:href="#mab86409fa7" x="38.27" y="423.501443" style="stroke: #000000; stroke-width: 0.8"/>
      </g>
     </g>
     <g id="text_5">
      <!-- 2 -->
      <g transform="translate(24.9075 427.300662)scale(0.1 -0.1)">
       <defs>
        <path id="DejaVuSans-32" d="M 1228 531 
L 3431 531 
L 3431 0 
L 469 0 
L 469 531 
Q 828 903 1448 1529 
Q 2069 2156 2228 2338 
Q 2531 2678 2651 2914 
Q 2772 3150 2772 3378 
Q 2772 3750 2511 3984 
Q 2250 4219 1831 4219 
Q 1534 4219 1204 4116 
Q 875 4013 500 3803 
L 500 4441 
Q 881 4594 1212 4672 
Q 1544 4750 1819 4750 
Q 2544 4750 2975 4387 
Q 3406 4025 3406 3419 
Q 3406 3131 3298 2873 
Q 3191 2616 2906 2266 
Q 2828 2175 2409 1742 
Q 1991 1309 1228 531 
z
" transform="scale(0.015625)"/>
       </defs>
       <use xlink:href="#DejaVuSans-32"/>
      </g>
     </g>
    </g>
    <g id="ytick_3">
     <g id="line2d_8">
      <path d="M 38.27 320.482887 
L 781.2 320.482887 
" clip-path="url(#pf2c14d096f)" style="fill: none; stroke: #b0b0b0; stroke-width: 0.8; stroke-linecap: square"/>
     </g>
     <g id="line2d_9">
      <g>
       <use xlink:href="#mab86409fa7" x="38.27" y="320.482887" style="stroke: #000000; stroke-width: 0.8"/>
      </g>
     </g>
     <g id="text_6">
      <!-- 4 -->
      <g transform="translate(24.9075 324.282105)scale(0.1 -0.1)">
       <defs>
        <path id="DejaVuSans-34" d="M 2419 4116 
L 825 1625 
L 2419 1625 
L 2419 4116 
z
M 2253 4666 
L 3047 4666 
L 3047 1625 
L 3713 1625 
L 3713 1100 
L 3047 1100 
L 3047 0 
L 2419 0 
L 2419 1100 
L 313 1100 
L 313 1709 
L 2253 4666 
z
" transform="scale(0.015625)"/>
       </defs>
       <use xlink:href="#DejaVuSans-34"/>
      </g>
     </g>
    </g>
    <g id="ytick_4">
     <g id="line2d_10">
      <path d="M 38.27 217.46433 
L 781.2 217.46433 
" clip-path="url(#pf2c14d096f)" style="fill: none; stroke: #b0b0b0; stroke-width: 0.8; stroke-linecap: square"/>
     </g>
     <g id="line2d_11">
      <g>
       <use xlink:href="#mab86409fa7" x="38.27" y="217.46433" style="stroke: #000000; stroke-width: 0.8"/>
      </g>
     </g>
     <g id="text_7">
      <!-- 6 -->
      <g transform="translate(24.9075 221.263549)scale(0.1 -0.1)">
       <defs>
        <path id="DejaVuSans-36" d="M 2113 2584 
Q 1688 2584 1439 2293 
Q 1191 2003 1191 1497 
Q 1191 994 1439 701 
Q 1688 409 2113 409 
Q 2538 409 2786 701 
Q 3034 994 3034 1497 
Q 3034 2003 2786 2293 
Q 2538 2584 2113 2584 
z
M 3366 4563 
L 3366 3988 
Q 3128 4100 2886 4159 
Q 2644 4219 2406 4219 
Q 1781 4219 1451 3797 
Q 1122 3375 1075 2522 
Q 1259 2794 1537 2939 
Q 1816 3084 2150 3084 
Q 2853 3084 3261 2657 
Q 3669 2231 3669 1497 
Q 3669 778 3244 343 
Q 2819 -91 2113 -91 
Q 1303 -91 875 529 
Q 447 1150 447 2328 
Q 447 3434 972 4092 
Q 1497 4750 2381 4750 
Q 2619 4750 2861 4703 
Q 3103 4656 3366 4563 
z
" transform="scale(0.015625)"/>
       </defs>
       <use xlink:href="#DejaVuSans-36"/>
      </g>
     </g>
    </g>
    <g id="ytick_5">
     <g id="line2d_12">
      <path d="M 38.27 114.445773 
L 781.2 114.445773 
" clip-path="url(#pf2c14d096f)" style="fill: none; stroke: #b0b0b0; stroke-width: 0.8; stroke-linecap: square"/>
     </g>
     <g id="line2d_13">
      <g>
       <use xlink:href="#mab86409fa7" x="38.27" y="114.445773" style="stroke: #000000; stroke-width: 0.8"/>
      </g>
     </g>
     <g id="text_8">
      <!-- 8 -->
      <g transform="translate(24.9075 118.244992)scale(0.1 -0.1)">
       <defs>
        <path id="DejaVuSans-38" d="M 2034 2216 
Q 1584 2216 1326 1975 
Q 1069 1734 1069 1313 
Q 1069 891 1326 650 
Q 1584 409 2034 409 
Q 2484 409 2743 651 
Q 3003 894 3003 1313 
Q 3003 1734 2745 1975 
Q 2488 2216 2034 2216 
z
M 1403 2484 
Q 997 2584 770 2862 
Q 544 3141 544 3541 
Q 544 4100 942 4425 
Q 1341 4750 2034 4750 
Q 2731 4750 3128 4425 
Q 3525 4100 3525 3541 
Q 3525 3141 3298 2862 
Q 3072 2584 2669 2484 
Q 3125 2378 3379 2068 
Q 3634 1759 3634 1313 
Q 3634 634 3220 271 
Q 2806 -91 2034 -91 
Q 1263 -91 848 271 
Q 434 634 434 1313 
Q 434 1759 690 2068 
Q 947 2378 1403 2484 
z
M 1172 3481 
Q 1172 3119 1398 2916 
Q 1625 2713 2034 2713 
Q 2441 2713 2670 2916 
Q 2900 3119 2900 3481 
Q 2900 3844 2670 4047 
Q 2441 4250 2034 4250 
Q 1625 4250 1398 4047 
Q 1172 3844 1172 3481 
z
" transform="scale(0.015625)"/>
       </defs>
       <use xlink:href="#DejaVuSans-38"/>
      </g>
     </g>
    </g>
    <g id="text_9">
     <!-- Landed Cost (Million $) -->
     <g transform="translate(18.827813 341.936719)rotate(-90)scale(0.1 -0.1)">
      <defs>
       <path id="DejaVuSans-Bold-6e" d="M 4056 2131 
L 4056 0 
L 2931 0 
L 2931 347 
L 2931 1631 
Q 2931 2084 2911 2256 
Q 2891 2428 2841 2509 
Q 2775 2619 2662 2680 
Q 2550 2741 2406 2741 
Q 2056 2741 1856 2470 
Q 1656 2200 1656 1722 
L 1656 0 
L 538 0 
L 538 3500 
L 1656 3500 
L 1656 2988 
Q 1909 3294 2193 3439 
Q 2478 3584 2822 3584 
Q 3428 3584 3742 3212 
Q 4056 2841 4056 2131 
z
" transform="scale(0.015625)"/>
       <path id="DejaVuSans-Bold-28" d="M 2413 -844 
L 1484 -844 
Q 1006 -72 778 623 
Q 550 1319 550 2003 
Q 550 2688 779 3389 
Q 1009 4091 1484 4856 
L 2413 4856 
Q 2013 4116 1813 3408 
Q 1613 2700 1613 2009 
Q 1613 1319 1811 609 
Q 2009 -100 2413 -844 
z
" transform="scale(0.015625)"/>
       <path id="DejaVuSans-Bold-4d" d="M 588 4666 
L 2119 4666 
L 3181 2169 
L 4250 4666 
L 5778 4666 
L 5778 0 
L 4641 0 
L 4641 3413 
L 3566 897 
L 2803 897 
L 1728 3413 
L 1728 0 
L 588 0 
L 588 4666 
z
" transform="scale(0.015625)"/>
       <path id="DejaVuSans-Bold-69" d="M 538 3500 
L 1656 3500 
L 1656 0 
L 538 0 
L 538 3500 
z
M 538 4863 
L 1656 4863 
L 1656 3950 
L 538 3950 
L 538 4863 
z
" transform="scale(0.015625)"/>
       <path id="DejaVuSans-Bold-24" d="M 2484 -941 
L 1978 -941 
L 1975 0 
Q 1584 16 1218 87 
Q 853 159 506 288 
L 506 1106 
Q 866 922 1233 823 
Q 1600 725 1978 713 
L 1978 1684 
L 1875 1703 
Q 1128 1834 814 2115 
Q 500 2397 500 2925 
Q 500 3484 883 3798 
Q 1266 4113 1975 4141 
L 1978 4863 
L 2484 4863 
L 2484 4153 
Q 2797 4128 3109 4075 
Q 3422 4022 3738 3938 
L 3738 3144 
Q 3425 3275 3112 3348 
Q 2800 3422 2484 3438 
L 2484 2541 
L 2584 2522 
Q 3378 2397 3698 2105 
Q 4019 1813 4019 1241 
Q 4019 666 3637 358 
Q 3256 50 2484 6 
L 2484 -941 
z
M 1978 2613 
L 1978 3428 
Q 1756 3416 1623 3308 
Q 1491 3200 1491 3034 
Q 1491 2850 1612 2745 
Q 1734 2641 1978 2613 
z
M 2484 1594 
L 2484 725 
Q 2756 728 2892 831 
Q 3028 934 3028 1141 
Q 3028 1353 2903 1458 
Q 2778 1563 2484 1594 
z
" transform="scale(0.015625)"/>
       <path id="DejaVuSans-Bold-29" d="M 513 -844 
Q 913 -100 1113 609 
Q 1313 1319 1313 2009 
Q 1313 2700 1113 3408 
Q 913 4116 513 4856 
L 1441 4856 
Q 1916 4091 2145 3389 
Q 2375 2688 2375 2003 
Q 2375 1319 2147 623 
Q 1919 -72 1441 -844 
L 513 -844 
z
" transform="scale(0.015625)"/>
      </defs>
      <use xlink:href="#DejaVuSans-Bold-4c"/>
      <use xlink:href="#DejaVuSans-Bold-61" x="63.720703"/>
      <use xlink:href="#DejaVuSans-Bold-6e" x="131.201172"/>
      <use xlink:href="#DejaVuSans-Bold-64" x="202.392578"/>
      <use xlink:href="#DejaVuSans-Bold-65" x="273.974609"/>
      <use xlink:href="#DejaVuSans-Bold-64" x="341.796875"/>
      <use xlink:href="#DejaVuSans-Bold-20" x="413.378906"/>
      <use xlink:href="#DejaVuSans-Bold-43" x="448.193359"/>
      <use xlink:href="#DejaVuSans-Bold-6f" x="521.582031"/>
      <use xlink:href="#DejaVuSans-Bold-73" x="590.283203"/>
      <use xlink:href="#DejaVuSans-Bold-74" x="649.804688"/>
      <use xlink:href="#DejaVuSans-Bold-20" x="697.607422"/>
      <use xlink:href="#DejaVuSans-Bold-28" x="732.421875"/>
      <use xlink:href="#DejaVuSans-Bold-4d" x="778.125"/>
      <use xlink:href="#DejaVuSans-Bold-69" x="877.636719"/>
      <use xlink:href="#DejaVuSans-Bold-6c" x="911.914062"/>
      <use xlink:href="#DejaVuSans-Bold-6c" x="946.191406"/>
      <use xlink:href="#DejaVuSans-Bold-69" x="980.46875"/>
      <use xlink:href="#DejaVuSans-Bold-6f" x="1014.746094"/>
      <use xlink:href="#DejaVuSans-Bold-6e" x="1083.447266"/>
      <use xlink:href="#DejaVuSans-Bold-20" x="1154.638672"/>
      <use xlink:href="#DejaVuSans-Bold-24" x="1189.453125"/>
      <use xlink:href="#DejaVuSans-Bold-29" x="1259.033203"/>
     </g>
    </g>
   </g>
   <g id="patch_3">
    <path d="M 38.27 526.52 
L 38.27 26.88 
" style="fill: none; stroke: #000000; stroke-width: 0.8; stroke-linejoin: miter; stroke-linecap: square"/>
   </g>
   <g id="patch_4">
    <path d="M 781.2 526.52 
L 781.2 26.88 
" style="fill: none; stroke: #000000; stroke-width: 0.8; stroke-linejoin: miter; stroke-linecap: square"/>
   </g>
   <g id="patch_5">
    <path d="M 38.27 526.52 
L 781.2 526.52 
" style="fill: none; stroke: #000000; stroke-width: 0.8; stroke-linejoin: miter; stroke-linecap: square"/>
   </g>
   <g id="patch_6">
    <path d="M 38.27 26.88 
L 781.2 26.88 
" style="fill: none; stroke: #000000; stroke-width: 0.8; stroke-linejoin: miter; stroke-linecap: square"/>
   </g>
   <g id="text_10">
    <!-- 3-Blade Set Cost Breakdowns (15-MW Turbine) -->
    <g transform="translate(251.649063 20.88)scale(0.12 -0.12)">
     <defs>
      <path id="DejaVuSans-Bold-33" d="M 2981 2516 
Q 3453 2394 3698 2092 
Q 3944 1791 3944 1325 
Q 3944 631 3412 270 
Q 2881 -91 1863 -91 
Q 1503 -91 1142 -33 
Q 781 25 428 141 
L 428 1069 
Q 766 900 1098 814 
Q 1431 728 1753 728 
Q 2231 728 2486 893 
Q 2741 1059 2741 1369 
Q 2741 1688 2480 1852 
Q 2219 2016 1709 2016 
L 1228 2016 
L 1228 2791 
L 1734 2791 
Q 2188 2791 2409 2933 
Q 2631 3075 2631 3366 
Q 2631 3634 2415 3781 
Q 2200 3928 1806 3928 
Q 1516 3928 1219 3862 
Q 922 3797 628 3669 
L 628 4550 
Q 984 4650 1334 4700 
Q 1684 4750 2022 4750 
Q 2931 4750 3382 4451 
Q 3834 4153 3834 3553 
Q 3834 3144 3618 2883 
Q 3403 2622 2981 2516 
z
" transform="scale(0.015625)"/>
      <path id="DejaVuSans-Bold-2d" d="M 347 2297 
L 2309 2297 
L 2309 1388 
L 347 1388 
L 347 2297 
z
" transform="scale(0.015625)"/>
      <path id="DejaVuSans-Bold-77" d="M 225 3500 
L 1313 3500 
L 1900 1088 
L 2491 3500 
L 3425 3500 
L 4013 1113 
L 4603 3500 
L 5691 3500 
L 4769 0 
L 3547 0 
L 2956 2406 
L 2369 0 
L 1147 0 
L 225 3500 
z
" transform="scale(0.015625)"/>
      <path id="DejaVuSans-Bold-31" d="M 750 831 
L 1813 831 
L 1813 3847 
L 722 3622 
L 722 4441 
L 1806 4666 
L 2950 4666 
L 2950 831 
L 4013 831 
L 4013 0 
L 750 0 
L 750 831 
z
" transform="scale(0.015625)"/>
      <path id="DejaVuSans-Bold-35" d="M 678 4666 
L 3669 4666 
L 3669 3781 
L 1638 3781 
L 1638 3059 
Q 1775 3097 1914 3117 
Q 2053 3138 2203 3138 
Q 3056 3138 3531 2711 
Q 4006 2284 4006 1522 
Q 4006 766 3489 337 
Q 2972 -91 2053 -91 
Q 1656 -91 1267 -14 
Q 878 63 494 219 
L 494 1166 
Q 875 947 1217 837 
Q 1559 728 1863 728 
Q 2300 728 2551 942 
Q 2803 1156 2803 1522 
Q 2803 1891 2551 2103 
Q 2300 2316 1863 2316 
Q 1603 2316 1309 2248 
Q 1016 2181 678 2041 
L 678 4666 
z
" transform="scale(0.015625)"/>
      <path id="DejaVuSans-Bold-57" d="M 191 4666 
L 1344 4666 
L 2150 1275 
L 2950 4666 
L 4109 4666 
L 4909 1275 
L 5716 4666 
L 6859 4666 
L 5759 0 
L 4372 0 
L 3525 3547 
L 2688 0 
L 1300 0 
L 191 4666 
z
" transform="scale(0.015625)"/>
      <path id="DejaVuSans-Bold-54" d="M 31 4666 
L 4331 4666 
L 4331 3756 
L 2784 3756 
L 2784 0 
L 1581 0 
L 1581 3756 
L 31 3756 
L 31 4666 
z
" transform="scale(0.015625)"/>
      <path id="DejaVuSans-Bold-62" d="M 2400 722 
Q 2759 722 2948 984 
Q 3138 1247 3138 1747 
Q 3138 2247 2948 2509 
Q 2759 2772 2400 2772 
Q 2041 2772 1848 2508 
Q 1656 2244 1656 1747 
Q 1656 1250 1848 986 
Q 2041 722 2400 722 
z
M 1656 2988 
Q 1888 3294 2169 3439 
Q 2450 3584 2816 3584 
Q 3463 3584 3878 3070 
Q 4294 2556 4294 1747 
Q 4294 938 3878 423 
Q 3463 -91 2816 -91 
Q 2450 -91 2169 54 
Q 1888 200 1656 506 
L 1656 0 
L 538 0 
L 538 4863 
L 1656 4863 
L 1656 2988 
z
" transform="scale(0.015625)"/>
     </defs>
     <use xlink:href="#DejaVuSans-Bold-33"/>
     <use xlink:href="#DejaVuSans-Bold-2d" x="69.580078"/>
     <use xlink:href="#DejaVuSans-Bold-42" x="111.083984"/>
     <use xlink:href="#DejaVuSans-Bold-6c" x="187.304688"/>
     <use xlink:href="#DejaVuSans-Bold-61" x="221.582031"/>
     <use xlink:href="#DejaVuSans-Bold-64" x="289.0625"/>
     <use xlink:href="#DejaVuSans-Bold-65" x="360.644531"/>
     <use xlink:href="#DejaVuSans-Bold-20" x="428.466797"/>
     <use xlink:href="#DejaVuSans-Bold-53" x="463.28125"/>
     <use xlink:href="#DejaVuSans-Bold-65" x="535.302734"/>
     <use xlink:href="#DejaVuSans-Bold-74" x="603.125"/>
     <use xlink:href="#DejaVuSans-Bold-20" x="650.927734"/>
     <use xlink:href="#DejaVuSans-Bold-43" x="685.742188"/>
     <use xlink:href="#DejaVuSans-Bold-6f" x="759.130859"/>
     <use xlink:href="#DejaVuSans-Bold-73" x="827.832031"/>
     <use xlink:href="#DejaVuSans-Bold-74" x="887.353516"/>
     <use xlink:href="#DejaVuSans-Bold-20" x="935.15625"/>
     <use xlink:href="#DejaVuSans-Bold-42" x="969.970703"/>
     <use xlink:href="#DejaVuSans-Bold-72" x="1046.191406"/>
     <use xlink:href="#DejaVuSans-Bold-65" x="1095.507812"/>
     <use xlink:href="#DejaVuSans-Bold-61" x="1163.330078"/>
     <use xlink:href="#DejaVuSans-Bold-6b" x="1230.810547"/>
     <use xlink:href="#DejaVuSans-Bold-64" x="1297.314453"/>
     <use xlink:href="#DejaVuSans-Bold-6f" x="1368.896484"/>
     <use xlink:href="#DejaVuSans-Bold-77" x="1437.597656"/>
     <use xlink:href="#DejaVuSans-Bold-6e" x="1529.980469"/>
     <use xlink:href="#DejaVuSans-Bold-73" x="1601.171875"/>
     <use xlink:href="#DejaVuSans-Bold-20" x="1660.693359"/>
     <use xlink:href="#DejaVuSans-Bold-28" x="1695.507812"/>
     <use xlink:href="#DejaVuSans-Bold-31" x="1741.210938"/>
     <use xlink:href="#DejaVuSans-Bold-35" x="1810.791016"/>
     <use xlink:href="#DejaVuSans-Bold-2d" x="1880.371094"/>
     <use xlink:href="#DejaVuSans-Bold-4d" x="1921.875"/>
     <use xlink:href="#DejaVuSans-Bold-57" x="2021.386719"/>
     <use xlink:href="#DejaVuSans-Bold-20" x="2131.689453"/>
     <use xlink:href="#DejaVuSans-Bold-54" x="2166.503906"/>
     <use xlink:href="#DejaVuSans-Bold-75" x="2223.716797"/>
     <use xlink:href="#DejaVuSans-Bold-72" x="2294.908203"/>
     <use xlink:href="#DejaVuSans-Bold-62" x="2344.224609"/>
     <use xlink:href="#DejaVuSans-Bold-69" x="2415.806641"/>
     <use xlink:href="#DejaVuSans-Bold-6e" x="2450.083984"/>
     <use xlink:href="#DejaVuSans-Bold-65" x="2521.275391"/>
     <use xlink:href="#DejaVuSans-Bold-29" x="2589.097656"/>
    </g>
   </g>
   <g id="legend_1">
    <g id="patch_7">
     <path d="M 639.159375 122.94875 
L 774.2 122.94875 
Q 776.2 122.94875 776.2 120.94875 
L 776.2 33.88 
Q 776.2 31.88 774.2 31.88 
L 639.159375 31.88 
Q 637.159375 31.88 637.159375 33.88 
L 637.159375 120.94875 
Q 637.159375 122.94875 639.159375 122.94875 
z
" style="fill: #ffffff; opacity: 0.8; stroke: #cccccc; stroke-linejoin: miter"/>
    </g>
    <g id="text_11">
     <!-- Cost Type -->
     <g transform="translate(682.492188 43.478438)scale(0.1 -0.1)">
      <defs>
       <path id="DejaVuSans-43" d="M 4122 4306 
L 4122 3641 
Q 3803 3938 3442 4084 
Q 3081 4231 2675 4231 
Q 1875 4231 1450 3742 
Q 1025 3253 1025 2328 
Q 1025 1406 1450 917 
Q 1875 428 2675 428 
Q 3081 428 3442 575 
Q 3803 722 4122 1019 
L 4122 359 
Q 3791 134 3420 21 
Q 3050 -91 2638 -91 
Q 1578 -91 968 557 
Q 359 1206 359 2328 
Q 359 3453 968 4101 
Q 1578 4750 2638 4750 
Q 3056 4750 3426 4639 
Q 3797 4528 4122 4306 
z
" transform="scale(0.015625)"/>
       <path id="DejaVuSans-6f" d="M 1959 3097 
Q 1497 3097 1228 2736 
Q 959 2375 959 1747 
Q 959 1119 1226 758 
Q 1494 397 1959 397 
Q 2419 397 2687 759 
Q 2956 1122 2956 1747 
Q 2956 2369 2687 2733 
Q 2419 3097 1959 3097 
z
M 1959 3584 
Q 2709 3584 3137 3096 
Q 3566 2609 3566 1747 
Q 3566 888 3137 398 
Q 2709 -91 1959 -91 
Q 1206 -91 779 398 
Q 353 888 353 1747 
Q 353 2609 779 3096 
Q 1206 3584 1959 3584 
z
" transform="scale(0.015625)"/>
       <path id="DejaVuSans-73" d="M 2834 3397 
L 2834 2853 
Q 2591 2978 2328 3040 
Q 2066 3103 1784 3103 
Q 1356 3103 1142 2972 
Q 928 2841 928 2578 
Q 928 2378 1081 2264 
Q 1234 2150 1697 2047 
L 1894 2003 
Q 2506 1872 2764 1633 
Q 3022 1394 3022 966 
Q 3022 478 2636 193 
Q 2250 -91 1575 -91 
Q 1294 -91 989 -36 
Q 684 19 347 128 
L 347 722 
Q 666 556 975 473 
Q 1284 391 1588 391 
Q 1994 391 2212 530 
Q 2431 669 2431 922 
Q 2431 1156 2273 1281 
Q 2116 1406 1581 1522 
L 1381 1569 
Q 847 1681 609 1914 
Q 372 2147 372 2553 
Q 372 3047 722 3315 
Q 1072 3584 1716 3584 
Q 2034 3584 2315 3537 
Q 2597 3491 2834 3397 
z
" transform="scale(0.015625)"/>
       <path id="DejaVuSans-74" d="M 1172 4494 
L 1172 3500 
L 2356 3500 
L 2356 3053 
L 1172 3053 
L 1172 1153 
Q 1172 725 1289 603 
Q 1406 481 1766 481 
L 2356 481 
L 2356 0 
L 1766 0 
Q 1100 0 847 248 
Q 594 497 594 1153 
L 594 3053 
L 172 3053 
L 172 3500 
L 594 3500 
L 594 4494 
L 1172 4494 
z
" transform="scale(0.015625)"/>
       <path id="DejaVuSans-20" transform="scale(0.015625)"/>
       <path id="DejaVuSans-54" d="M -19 4666 
L 3928 4666 
L 3928 4134 
L 2272 4134 
L 2272 0 
L 1638 0 
L 1638 4134 
L -19 4134 
L -19 4666 
z
" transform="scale(0.015625)"/>
       <path id="DejaVuSans-79" d="M 2059 -325 
Q 1816 -950 1584 -1140 
Q 1353 -1331 966 -1331 
L 506 -1331 
L 506 -850 
L 844 -850 
Q 1081 -850 1212 -737 
Q 1344 -625 1503 -206 
L 1606 56 
L 191 3500 
L 800 3500 
L 1894 763 
L 2988 3500 
L 3597 3500 
L 2059 -325 
z
" transform="scale(0.015625)"/>
       <path id="DejaVuSans-70" d="M 1159 525 
L 1159 -1331 
L 581 -1331 
L 581 3500 
L 1159 3500 
L 1159 2969 
Q 1341 3281 1617 3432 
Q 1894 3584 2278 3584 
Q 2916 3584 3314 3078 
Q 3713 2572 3713 1747 
Q 3713 922 3314 415 
Q 2916 -91 2278 -91 
Q 1894 -91 1617 61 
Q 1341 213 1159 525 
z
M 3116 1747 
Q 3116 2381 2855 2742 
Q 2594 3103 2138 3103 
Q 1681 3103 1420 2742 
Q 1159 2381 1159 1747 
Q 1159 1113 1420 752 
Q 1681 391 2138 391 
Q 2594 391 2855 752 
Q 3116 1113 3116 1747 
z
" transform="scale(0.015625)"/>
       <path id="DejaVuSans-65" d="M 3597 1894 
L 3597 1613 
L 953 1613 
Q 991 1019 1311 708 
Q 1631 397 2203 397 
Q 2534 397 2845 478 
Q 3156 559 3463 722 
L 3463 178 
Q 3153 47 2828 -22 
Q 2503 -91 2169 -91 
Q 1331 -91 842 396 
Q 353 884 353 1716 
Q 353 2575 817 3079 
Q 1281 3584 2069 3584 
Q 2775 3584 3186 3129 
Q 3597 2675 3597 1894 
z
M 3022 2063 
Q 3016 2534 2758 2815 
Q 2500 3097 2075 3097 
Q 1594 3097 1305 2825 
Q 1016 2553 972 2059 
L 3022 2063 
z
" transform="scale(0.015625)"/>
      </defs>
      <use xlink:href="#DejaVuSans-43"/>
      <use xlink:href="#DejaVuSans-6f" x="69.824219"/>
      <use xlink:href="#DejaVuSans-73" x="131.005859"/>
      <use xlink:href="#DejaVuSans-74" x="183.105469"/>
      <use xlink:href="#DejaVuSans-20" x="222.314453"/>
      <use xlink:href="#DejaVuSans-54" x="254.101562"/>
      <use xlink:href="#DejaVuSans-79" x="299.560547"/>
      <use xlink:href="#DejaVuSans-70" x="358.740234"/>
      <use xlink:href="#DejaVuSans-65" x="422.216797"/>
     </g>
    </g>
    <g id="patch_8">
     <path d="M 641.159375 58.156563 
L 661.159375 58.156563 
L 661.159375 51.156563 
L 641.159375 51.156563 
z
" style="fill: #d3d3d3; stroke: #000000; stroke-linejoin: miter"/>
    </g>
    <g id="text_12">
     <!-- Other -->
     <g transform="translate(669.159375 58.156563)scale(0.1 -0.1)">
      <defs>
       <path id="DejaVuSans-4f" d="M 2522 4238 
Q 1834 4238 1429 3725 
Q 1025 3213 1025 2328 
Q 1025 1447 1429 934 
Q 1834 422 2522 422 
Q 3209 422 3611 934 
Q 4013 1447 4013 2328 
Q 4013 3213 3611 3725 
Q 3209 4238 2522 4238 
z
M 2522 4750 
Q 3503 4750 4090 4092 
Q 4678 3434 4678 2328 
Q 4678 1225 4090 567 
Q 3503 -91 2522 -91 
Q 1538 -91 948 565 
Q 359 1222 359 2328 
Q 359 3434 948 4092 
Q 1538 4750 2522 4750 
z
" transform="scale(0.015625)"/>
       <path id="DejaVuSans-68" d="M 3513 2113 
L 3513 0 
L 2938 0 
L 2938 2094 
Q 2938 2591 2744 2837 
Q 2550 3084 2163 3084 
Q 1697 3084 1428 2787 
Q 1159 2491 1159 1978 
L 1159 0 
L 581 0 
L 581 4863 
L 1159 4863 
L 1159 2956 
Q 1366 3272 1645 3428 
Q 1925 3584 2291 3584 
Q 2894 3584 3203 3211 
Q 3513 2838 3513 2113 
z
" transform="scale(0.015625)"/>
       <path id="DejaVuSans-72" d="M 2631 2963 
Q 2534 3019 2420 3045 
Q 2306 3072 2169 3072 
Q 1681 3072 1420 2755 
Q 1159 2438 1159 1844 
L 1159 0 
L 581 0 
L 581 3500 
L 1159 3500 
L 1159 2956 
Q 1341 3275 1631 3429 
Q 1922 3584 2338 3584 
Q 2397 3584 2469 3576 
Q 2541 3569 2628 3553 
L 2631 2963 
z
" transform="scale(0.015625)"/>
      </defs>
      <use xlink:href="#DejaVuSans-4f"/>
      <use xlink:href="#DejaVuSans-74" x="78.710938"/>
      <use xlink:href="#DejaVuSans-68" x="117.919922"/>
      <use xlink:href="#DejaVuSans-65" x="181.298828"/>
      <use xlink:href="#DejaVuSans-72" x="242.822266"/>
     </g>
    </g>
    <g id="patch_9">
     <path d="M 641.159375 72.834688 
L 661.159375 72.834688 
L 661.159375 65.834688 
L 641.159375 65.834688 
z
" style="fill: #00bfff; stroke: #000000; stroke-linejoin: miter"/>
    </g>
    <g id="text_13">
     <!-- Labor -->
     <g transform="translate(669.159375 72.834688)scale(0.1 -0.1)">
      <defs>
       <path id="DejaVuSans-4c" d="M 628 4666 
L 1259 4666 
L 1259 531 
L 3531 531 
L 3531 0 
L 628 0 
L 628 4666 
z
" transform="scale(0.015625)"/>
       <path id="DejaVuSans-61" d="M 2194 1759 
Q 1497 1759 1228 1600 
Q 959 1441 959 1056 
Q 959 750 1161 570 
Q 1363 391 1709 391 
Q 2188 391 2477 730 
Q 2766 1069 2766 1631 
L 2766 1759 
L 2194 1759 
z
M 3341 1997 
L 3341 0 
L 2766 0 
L 2766 531 
Q 2569 213 2275 61 
Q 1981 -91 1556 -91 
Q 1019 -91 701 211 
Q 384 513 384 1019 
Q 384 1609 779 1909 
Q 1175 2209 1959 2209 
L 2766 2209 
L 2766 2266 
Q 2766 2663 2505 2880 
Q 2244 3097 1772 3097 
Q 1472 3097 1187 3025 
Q 903 2953 641 2809 
L 641 3341 
Q 956 3463 1253 3523 
Q 1550 3584 1831 3584 
Q 2591 3584 2966 3190 
Q 3341 2797 3341 1997 
z
" transform="scale(0.015625)"/>
       <path id="DejaVuSans-62" d="M 3116 1747 
Q 3116 2381 2855 2742 
Q 2594 3103 2138 3103 
Q 1681 3103 1420 2742 
Q 1159 2381 1159 1747 
Q 1159 1113 1420 752 
Q 1681 391 2138 391 
Q 2594 391 2855 752 
Q 3116 1113 3116 1747 
z
M 1159 2969 
Q 1341 3281 1617 3432 
Q 1894 3584 2278 3584 
Q 2916 3584 3314 3078 
Q 3713 2572 3713 1747 
Q 3713 922 3314 415 
Q 2916 -91 2278 -91 
Q 1894 -91 1617 61 
Q 1341 213 1159 525 
L 1159 0 
L 581 0 
L 581 4863 
L 1159 4863 
L 1159 2969 
z
" transform="scale(0.015625)"/>
      </defs>
      <use xlink:href="#DejaVuSans-4c"/>
      <use xlink:href="#DejaVuSans-61" x="55.712891"/>
      <use xlink:href="#DejaVuSans-62" x="116.992188"/>
      <use xlink:href="#DejaVuSans-6f" x="180.46875"/>
      <use xlink:href="#DejaVuSans-72" x="241.650391"/>
     </g>
    </g>
    <g id="patch_10">
     <path d="M 641.159375 87.512813 
L 661.159375 87.512813 
L 661.159375 80.512813 
L 641.159375 80.512813 
z
" style="fill: #9370db; stroke: #000000; stroke-linejoin: miter"/>
    </g>
    <g id="text_14">
     <!-- Raw materials -->
     <g transform="translate(669.159375 87.512813)scale(0.1 -0.1)">
      <defs>
       <path id="DejaVuSans-52" d="M 2841 2188 
Q 3044 2119 3236 1894 
Q 3428 1669 3622 1275 
L 4263 0 
L 3584 0 
L 2988 1197 
Q 2756 1666 2539 1819 
Q 2322 1972 1947 1972 
L 1259 1972 
L 1259 0 
L 628 0 
L 628 4666 
L 2053 4666 
Q 2853 4666 3247 4331 
Q 3641 3997 3641 3322 
Q 3641 2881 3436 2590 
Q 3231 2300 2841 2188 
z
M 1259 4147 
L 1259 2491 
L 2053 2491 
Q 2509 2491 2742 2702 
Q 2975 2913 2975 3322 
Q 2975 3731 2742 3939 
Q 2509 4147 2053 4147 
L 1259 4147 
z
" transform="scale(0.015625)"/>
       <path id="DejaVuSans-77" d="M 269 3500 
L 844 3500 
L 1563 769 
L 2278 3500 
L 2956 3500 
L 3675 769 
L 4391 3500 
L 4966 3500 
L 4050 0 
L 3372 0 
L 2619 2869 
L 1863 0 
L 1184 0 
L 269 3500 
z
" transform="scale(0.015625)"/>
       <path id="DejaVuSans-6d" d="M 3328 2828 
Q 3544 3216 3844 3400 
Q 4144 3584 4550 3584 
Q 5097 3584 5394 3201 
Q 5691 2819 5691 2113 
L 5691 0 
L 5113 0 
L 5113 2094 
Q 5113 2597 4934 2840 
Q 4756 3084 4391 3084 
Q 3944 3084 3684 2787 
Q 3425 2491 3425 1978 
L 3425 0 
L 2847 0 
L 2847 2094 
Q 2847 2600 2669 2842 
Q 2491 3084 2119 3084 
Q 1678 3084 1418 2786 
Q 1159 2488 1159 1978 
L 1159 0 
L 581 0 
L 581 3500 
L 1159 3500 
L 1159 2956 
Q 1356 3278 1631 3431 
Q 1906 3584 2284 3584 
Q 2666 3584 2933 3390 
Q 3200 3197 3328 2828 
z
" transform="scale(0.015625)"/>
       <path id="DejaVuSans-69" d="M 603 3500 
L 1178 3500 
L 1178 0 
L 603 0 
L 603 3500 
z
M 603 4863 
L 1178 4863 
L 1178 4134 
L 603 4134 
L 603 4863 
z
" transform="scale(0.015625)"/>
       <path id="DejaVuSans-6c" d="M 603 4863 
L 1178 4863 
L 1178 0 
L 603 0 
L 603 4863 
z
" transform="scale(0.015625)"/>
      </defs>
      <use xlink:href="#DejaVuSans-52"/>
      <use xlink:href="#DejaVuSans-61" x="67.232422"/>
      <use xlink:href="#DejaVuSans-77" x="128.511719"/>
      <use xlink:href="#DejaVuSans-20" x="210.298828"/>
      <use xlink:href="#DejaVuSans-6d" x="242.085938"/>
      <use xlink:href="#DejaVuSans-61" x="339.498047"/>
      <use xlink:href="#DejaVuSans-74" x="400.777344"/>
      <use xlink:href="#DejaVuSans-65" x="439.986328"/>
      <use xlink:href="#DejaVuSans-72" x="501.509766"/>
      <use xlink:href="#DejaVuSans-69" x="542.623047"/>
      <use xlink:href="#DejaVuSans-61" x="570.40625"/>
      <use xlink:href="#DejaVuSans-6c" x="631.685547"/>
      <use xlink:href="#DejaVuSans-73" x="659.46875"/>
     </g>
    </g>
    <g id="patch_11">
     <path d="M 641.159375 102.190938 
L 661.159375 102.190938 
L 661.159375 95.190938 
L 641.159375 95.190938 
z
" style="fill: #ffa07a; stroke: #000000; stroke-linejoin: miter"/>
    </g>
    <g id="text_15">
     <!-- Factory amortization -->
     <g transform="translate(669.159375 102.190938)scale(0.1 -0.1)">
      <defs>
       <path id="DejaVuSans-46" d="M 628 4666 
L 3309 4666 
L 3309 4134 
L 1259 4134 
L 1259 2759 
L 3109 2759 
L 3109 2228 
L 1259 2228 
L 1259 0 
L 628 0 
L 628 4666 
z
" transform="scale(0.015625)"/>
       <path id="DejaVuSans-63" d="M 3122 3366 
L 3122 2828 
Q 2878 2963 2633 3030 
Q 2388 3097 2138 3097 
Q 1578 3097 1268 2742 
Q 959 2388 959 1747 
Q 959 1106 1268 751 
Q 1578 397 2138 397 
Q 2388 397 2633 464 
Q 2878 531 3122 666 
L 3122 134 
Q 2881 22 2623 -34 
Q 2366 -91 2075 -91 
Q 1284 -91 818 406 
Q 353 903 353 1747 
Q 353 2603 823 3093 
Q 1294 3584 2113 3584 
Q 2378 3584 2631 3529 
Q 2884 3475 3122 3366 
z
" transform="scale(0.015625)"/>
       <path id="DejaVuSans-7a" d="M 353 3500 
L 3084 3500 
L 3084 2975 
L 922 459 
L 3084 459 
L 3084 0 
L 275 0 
L 275 525 
L 2438 3041 
L 353 3041 
L 353 3500 
z
" transform="scale(0.015625)"/>
       <path id="DejaVuSans-6e" d="M 3513 2113 
L 3513 0 
L 2938 0 
L 2938 2094 
Q 2938 2591 2744 2837 
Q 2550 3084 2163 3084 
Q 1697 3084 1428 2787 
Q 1159 2491 1159 1978 
L 1159 0 
L 581 0 
L 581 3500 
L 1159 3500 
L 1159 2956 
Q 1366 3272 1645 3428 
Q 1925 3584 2291 3584 
Q 2894 3584 3203 3211 
Q 3513 2838 3513 2113 
z
" transform="scale(0.015625)"/>
      </defs>
      <use xlink:href="#DejaVuSans-46"/>
      <use xlink:href="#DejaVuSans-61" x="48.394531"/>
      <use xlink:href="#DejaVuSans-63" x="109.673828"/>
      <use xlink:href="#DejaVuSans-74" x="164.654297"/>
      <use xlink:href="#DejaVuSans-6f" x="203.863281"/>
      <use xlink:href="#DejaVuSans-72" x="265.044922"/>
      <use xlink:href="#DejaVuSans-79" x="306.158203"/>
      <use xlink:href="#DejaVuSans-20" x="365.337891"/>
      <use xlink:href="#DejaVuSans-61" x="397.125"/>
      <use xlink:href="#DejaVuSans-6d" x="458.404297"/>
      <use xlink:href="#DejaVuSans-6f" x="555.816406"/>
      <use xlink:href="#DejaVuSans-72" x="616.998047"/>
      <use xlink:href="#DejaVuSans-74" x="658.111328"/>
      <use xlink:href="#DejaVuSans-69" x="697.320312"/>
      <use xlink:href="#DejaVuSans-7a" x="725.103516"/>
      <use xlink:href="#DejaVuSans-61" x="777.59375"/>
      <use xlink:href="#DejaVuSans-74" x="838.873047"/>
      <use xlink:href="#DejaVuSans-69" x="878.082031"/>
      <use xlink:href="#DejaVuSans-6f" x="905.865234"/>
      <use xlink:href="#DejaVuSans-6e" x="967.046875"/>
     </g>
    </g>
    <g id="patch_12">
     <path d="M 641.159375 116.869063 
L 661.159375 116.869063 
L 661.159375 109.869063 
L 641.159375 109.869063 
z
" style="fill: #ffb6c1; stroke: #000000; stroke-linejoin: miter"/>
    </g>
    <g id="text_16">
     <!-- Transportation -->
     <g transform="translate(669.159375 116.869063)scale(0.1 -0.1)">
      <use xlink:href="#DejaVuSans-54"/>
      <use xlink:href="#DejaVuSans-72" x="46.333984"/>
      <use xlink:href="#DejaVuSans-61" x="87.447266"/>
      <use xlink:href="#DejaVuSans-6e" x="148.726562"/>
      <use xlink:href="#DejaVuSans-73" x="212.105469"/>
      <use xlink:href="#DejaVuSans-70" x="264.205078"/>
      <use xlink:href="#DejaVuSans-6f" x="327.681641"/>
      <use xlink:href="#DejaVuSans-72" x="388.863281"/>
      <use xlink:href="#DejaVuSans-74" x="429.976562"/>
      <use xlink:href="#DejaVuSans-61" x="469.185547"/>
      <use xlink:href="#DejaVuSans-74" x="530.464844"/>
      <use xlink:href="#DejaVuSans-69" x="569.673828"/>
      <use xlink:href="#DejaVuSans-6f" x="597.457031"/>
      <use xlink:href="#DejaVuSans-6e" x="658.638672"/>
     </g>
    </g>
   </g>
   <g id="patch_13">
    <path d="M 100.180833 526.52 
L 224.0025 526.52 
L 224.0025 491.448057 
L 100.180833 491.448057 
z
" clip-path="url(#pf2c14d096f)" style="fill: #d3d3d3; stroke: #000000; stroke-linejoin: miter"/>
   </g>
   <g id="patch_14">
    <path d="M 347.824167 526.52 
L 471.645833 526.52 
L 471.645833 491.448057 
L 347.824167 491.448057 
z
" clip-path="url(#pf2c14d096f)" style="fill: #d3d3d3; stroke: #000000; stroke-linejoin: miter"/>
   </g>
   <g id="patch_15">
    <path d="M 595.4675 526.52 
L 719.289167 526.52 
L 719.289167 491.448057 
L 595.4675 491.448057 
z
" clip-path="url(#pf2c14d096f)" style="fill: #d3d3d3; stroke: #000000; stroke-linejoin: miter"/>
   </g>
   <g id="patch_16">
    <path d="M 100.180833 491.448057 
L 224.0025 491.448057 
L 224.0025 375.710645 
L 100.180833 375.710645 
z
" clip-path="url(#pf2c14d096f)" style="fill: #00bfff; stroke: #000000; stroke-linejoin: miter"/>
   </g>
   <g id="patch_17">
    <path d="M 347.824167 491.448057 
L 471.645833 491.448057 
L 471.645833 375.710645 
L 347.824167 375.710645 
z
" clip-path="url(#pf2c14d096f)" style="fill: #00bfff; stroke: #000000; stroke-linejoin: miter"/>
   </g>
   <g id="patch_18">
    <path d="M 595.4675 491.448057 
L 719.289167 491.448057 
L 719.289167 375.710645 
L 595.4675 375.710645 
z
" clip-path="url(#pf2c14d096f)" style="fill: #00bfff; stroke: #000000; stroke-linejoin: miter"/>
   </g>
   <g id="patch_19">
    <path d="M 100.180833 375.710645 
L 224.0025 375.710645 
L 224.0025 234.253807 
L 100.180833 234.253807 
z
" clip-path="url(#pf2c14d096f)" style="fill: #9370db; stroke: #000000; stroke-linejoin: miter"/>
   </g>
   <g id="patch_20">
    <path d="M 347.824167 375.710645 
L 471.645833 375.710645 
L 471.645833 234.253807 
L 347.824167 234.253807 
z
" clip-path="url(#pf2c14d096f)" style="fill: #9370db; stroke: #000000; stroke-linejoin: miter"/>
   </g>
   <g id="patch_21">
    <path d="M 595.4675 375.710645 
L 719.289167 375.710645 
L 719.289167 234.253807 
L 595.4675 234.253807 
z
" clip-path="url(#pf2c14d096f)" style="fill: #9370db; stroke: #000000; stroke-linejoin: miter"/>
   </g>
   <g id="patch_22">
    <path d="M 100.180833 234.253807 
L 224.0025 234.253807 
L 224.0025 218.249791 
L 100.180833 218.249791 
z
" clip-path="url(#pf2c14d096f)" style="fill: #ffa07a; stroke: #000000; stroke-linejoin: miter"/>
   </g>
   <g id="patch_23">
    <path d="M 347.824167 234.253807 
L 471.645833 234.253807 
L 471.645833 183.60278 
L 347.824167 183.60278 
z
" clip-path="url(#pf2c14d096f)" style="fill: #ffa07a; stroke: #000000; stroke-linejoin: miter"/>
   </g>
   <g id="patch_24">
    <path d="M 595.4675 234.253807 
L 719.289167 234.253807 
L 719.289167 183.60278 
L 595.4675 183.60278 
z
" clip-path="url(#pf2c14d096f)" style="fill: #ffa07a; stroke: #000000; stroke-linejoin: miter"/>
   </g>
   <g id="patch_25">
    <path d="M 100.180833 218.249791 
L 224.0025 218.249791 
L 224.0025 173.696463 
L 100.180833 173.696463 
z
" clip-path="url(#pf2c14d096f)" style="fill: #ffb6c1; stroke: #000000; stroke-linejoin: miter"/>
   </g>
   <g id="patch_26">
    <path d="M 347.824167 183.60278 
L 471.645833 183.60278 
L 471.645833 174.117567 
L 347.824167 174.117567 
z
" clip-path="url(#pf2c14d096f)" style="fill: #ffb6c1; stroke: #000000; stroke-linejoin: miter"/>
   </g>
   <g id="patch_27">
    <path d="M 595.4675 183.60278 
L 719.289167 183.60278 
L 719.289167 151.163954 
L 595.4675 151.163954 
z
" clip-path="url(#pf2c14d096f)" style="fill: #ffb6c1; stroke: #000000; stroke-linejoin: miter"/>
   </g>
   <g id="text_17">
    <!-- $0.68M | 10% | $45/kW -->
    <g transform="translate(118.191471 510.965669)scale(0.075 -0.075)">
     <defs>
      <path id="DejaVuSans-24" d="M 2163 -941 
L 1850 -941 
L 1847 0 
Q 1519 6 1191 76 
Q 863 147 531 288 
L 531 850 
Q 850 650 1176 548 
Q 1503 447 1850 444 
L 1850 1869 
Q 1159 1981 845 2250 
Q 531 2519 531 2988 
Q 531 3497 872 3790 
Q 1213 4084 1850 4128 
L 1850 4863 
L 2163 4863 
L 2163 4138 
Q 2453 4125 2725 4076 
Q 2997 4028 3256 3944 
L 3256 3397 
Q 2997 3528 2723 3600 
Q 2450 3672 2163 3684 
L 2163 2350 
Q 2872 2241 3206 1959 
Q 3541 1678 3541 1191 
Q 3541 663 3186 358 
Q 2831 53 2163 6 
L 2163 -941 
z
M 1850 2406 
L 1850 3688 
Q 1488 3647 1297 3481 
Q 1106 3316 1106 3041 
Q 1106 2772 1282 2622 
Q 1459 2472 1850 2406 
z
M 2163 1806 
L 2163 453 
Q 2559 506 2761 678 
Q 2963 850 2963 1131 
Q 2963 1406 2770 1568 
Q 2578 1731 2163 1806 
z
" transform="scale(0.015625)"/>
      <path id="DejaVuSans-2e" d="M 684 794 
L 1344 794 
L 1344 0 
L 684 0 
L 684 794 
z
" transform="scale(0.015625)"/>
      <path id="DejaVuSans-4d" d="M 628 4666 
L 1569 4666 
L 2759 1491 
L 3956 4666 
L 4897 4666 
L 4897 0 
L 4281 0 
L 4281 4097 
L 3078 897 
L 2444 897 
L 1241 4097 
L 1241 0 
L 628 0 
L 628 4666 
z
" transform="scale(0.015625)"/>
      <path id="DejaVuSans-7c" d="M 1344 4891 
L 1344 -1509 
L 813 -1509 
L 813 4891 
L 1344 4891 
z
" transform="scale(0.015625)"/>
      <path id="DejaVuSans-31" d="M 794 531 
L 1825 531 
L 1825 4091 
L 703 3866 
L 703 4441 
L 1819 4666 
L 2450 4666 
L 2450 531 
L 3481 531 
L 3481 0 
L 794 0 
L 794 531 
z
" transform="scale(0.015625)"/>
      <path id="DejaVuSans-25" d="M 4653 2053 
Q 4381 2053 4226 1822 
Q 4072 1591 4072 1178 
Q 4072 772 4226 539 
Q 4381 306 4653 306 
Q 4919 306 5073 539 
Q 5228 772 5228 1178 
Q 5228 1588 5073 1820 
Q 4919 2053 4653 2053 
z
M 4653 2450 
Q 5147 2450 5437 2106 
Q 5728 1763 5728 1178 
Q 5728 594 5436 251 
Q 5144 -91 4653 -91 
Q 4153 -91 3862 251 
Q 3572 594 3572 1178 
Q 3572 1766 3864 2108 
Q 4156 2450 4653 2450 
z
M 1428 4353 
Q 1159 4353 1004 4120 
Q 850 3888 850 3481 
Q 850 3069 1003 2837 
Q 1156 2606 1428 2606 
Q 1700 2606 1854 2837 
Q 2009 3069 2009 3481 
Q 2009 3884 1853 4118 
Q 1697 4353 1428 4353 
z
M 4250 4750 
L 4750 4750 
L 1831 -91 
L 1331 -91 
L 4250 4750 
z
M 1428 4750 
Q 1922 4750 2215 4408 
Q 2509 4066 2509 3481 
Q 2509 2891 2217 2550 
Q 1925 2209 1428 2209 
Q 931 2209 642 2551 
Q 353 2894 353 3481 
Q 353 4063 643 4406 
Q 934 4750 1428 4750 
z
" transform="scale(0.015625)"/>
      <path id="DejaVuSans-35" d="M 691 4666 
L 3169 4666 
L 3169 4134 
L 1269 4134 
L 1269 2991 
Q 1406 3038 1543 3061 
Q 1681 3084 1819 3084 
Q 2600 3084 3056 2656 
Q 3513 2228 3513 1497 
Q 3513 744 3044 326 
Q 2575 -91 1722 -91 
Q 1428 -91 1123 -41 
Q 819 9 494 109 
L 494 744 
Q 775 591 1075 516 
Q 1375 441 1709 441 
Q 2250 441 2565 725 
Q 2881 1009 2881 1497 
Q 2881 1984 2565 2268 
Q 2250 2553 1709 2553 
Q 1456 2553 1204 2497 
Q 953 2441 691 2322 
L 691 4666 
z
" transform="scale(0.015625)"/>
      <path id="DejaVuSans-2f" d="M 1625 4666 
L 2156 4666 
L 531 -594 
L 0 -594 
L 1625 4666 
z
" transform="scale(0.015625)"/>
      <path id="DejaVuSans-6b" d="M 581 4863 
L 1159 4863 
L 1159 1991 
L 2875 3500 
L 3609 3500 
L 1753 1863 
L 3688 0 
L 2938 0 
L 1159 1709 
L 1159 0 
L 581 0 
L 581 4863 
z
" transform="scale(0.015625)"/>
      <path id="DejaVuSans-57" d="M 213 4666 
L 850 4666 
L 1831 722 
L 2809 4666 
L 3519 4666 
L 4500 722 
L 5478 4666 
L 6119 4666 
L 4947 0 
L 4153 0 
L 3169 4050 
L 2175 0 
L 1381 0 
L 213 4666 
z
" transform="scale(0.015625)"/>
     </defs>
     <use xlink:href="#DejaVuSans-24"/>
     <use xlink:href="#DejaVuSans-30" x="63.623047"/>
     <use xlink:href="#DejaVuSans-2e" x="127.246094"/>
     <use xlink:href="#DejaVuSans-36" x="159.033203"/>
     <use xlink:href="#DejaVuSans-38" x="222.65625"/>
     <use xlink:href="#DejaVuSans-4d" x="286.279297"/>
     <use xlink:href="#DejaVuSans-20" x="372.558594"/>
     <use xlink:href="#DejaVuSans-7c" x="404.345703"/>
     <use xlink:href="#DejaVuSans-20" x="438.037109"/>
     <use xlink:href="#DejaVuSans-31" x="469.824219"/>
     <use xlink:href="#DejaVuSans-30" x="533.447266"/>
     <use xlink:href="#DejaVuSans-25" x="597.070312"/>
     <use xlink:href="#DejaVuSans-20" x="692.089844"/>
     <use xlink:href="#DejaVuSans-7c" x="723.876953"/>
     <use xlink:href="#DejaVuSans-20" x="757.568359"/>
     <use xlink:href="#DejaVuSans-24" x="789.355469"/>
     <use xlink:href="#DejaVuSans-34" x="852.978516"/>
     <use xlink:href="#DejaVuSans-35" x="916.601562"/>
     <use xlink:href="#DejaVuSans-2f" x="980.224609"/>
     <use xlink:href="#DejaVuSans-6b" x="1013.916016"/>
     <use xlink:href="#DejaVuSans-57" x="1071.826172"/>
    </g>
   </g>
   <g id="text_18">
    <!-- $6.85M | $457/kW -->
    <g transform="translate(129.159542 168.470603)scale(0.072 -0.072)">
     <defs>
      <path id="DejaVuSans-37" d="M 525 4666 
L 3525 4666 
L 3525 4397 
L 1831 0 
L 1172 0 
L 2766 4134 
L 525 4134 
L 525 4666 
z
" transform="scale(0.015625)"/>
     </defs>
     <use xlink:href="#DejaVuSans-24"/>
     <use xlink:href="#DejaVuSans-36" x="63.623047"/>
     <use xlink:href="#DejaVuSans-2e" x="127.246094"/>
     <use xlink:href="#DejaVuSans-38" x="159.033203"/>
     <use xlink:href="#DejaVuSans-35" x="222.65625"/>
     <use xlink:href="#DejaVuSans-4d" x="286.279297"/>
     <use xlink:href="#DejaVuSans-20" x="372.558594"/>
     <use xlink:href="#DejaVuSans-7c" x="404.345703"/>
     <use xlink:href="#DejaVuSans-20" x="438.037109"/>
     <use xlink:href="#DejaVuSans-24" x="469.824219"/>
     <use xlink:href="#DejaVuSans-34" x="533.447266"/>
     <use xlink:href="#DejaVuSans-35" x="597.070312"/>
     <use xlink:href="#DejaVuSans-37" x="660.693359"/>
     <use xlink:href="#DejaVuSans-2f" x="724.316406"/>
     <use xlink:href="#DejaVuSans-6b" x="758.007812"/>
     <use xlink:href="#DejaVuSans-57" x="815.917969"/>
    </g>
   </g>
   <g id="text_19">
    <!-- $0.68M | 10% | $45/kW -->
    <g transform="translate(365.834805 510.965669)scale(0.075 -0.075)">
     <use xlink:href="#DejaVuSans-24"/>
     <use xlink:href="#DejaVuSans-30" x="63.623047"/>
     <use xlink:href="#DejaVuSans-2e" x="127.246094"/>
     <use xlink:href="#DejaVuSans-36" x="159.033203"/>
     <use xlink:href="#DejaVuSans-38" x="222.65625"/>
     <use xlink:href="#DejaVuSans-4d" x="286.279297"/>
     <use xlink:href="#DejaVuSans-20" x="372.558594"/>
     <use xlink:href="#DejaVuSans-7c" x="404.345703"/>
     <use xlink:href="#DejaVuSans-20" x="438.037109"/>
     <use xlink:href="#DejaVuSans-31" x="469.824219"/>
     <use xlink:href="#DejaVuSans-30" x="533.447266"/>
     <use xlink:href="#DejaVuSans-25" x="597.070312"/>
     <use xlink:href="#DejaVuSans-20" x="692.089844"/>
     <use xlink:href="#DejaVuSans-7c" x="723.876953"/>
     <use xlink:href="#DejaVuSans-20" x="757.568359"/>
     <use xlink:href="#DejaVuSans-24" x="789.355469"/>
     <use xlink:href="#DejaVuSans-34" x="852.978516"/>
     <use xlink:href="#DejaVuSans-35" x="916.601562"/>
     <use xlink:href="#DejaVuSans-2f" x="980.224609"/>
     <use xlink:href="#DejaVuSans-6b" x="1013.916016"/>
     <use xlink:href="#DejaVuSans-57" x="1071.826172"/>
    </g>
   </g>
   <g id="text_20">
    <!-- $6.84M | $456/kW -->
    <g transform="translate(376.802875 168.895918)scale(0.072 -0.072)">
     <use xlink:href="#DejaVuSans-24"/>
     <use xlink:href="#DejaVuSans-36" x="63.623047"/>
     <use xlink:href="#DejaVuSans-2e" x="127.246094"/>
     <use xlink:href="#DejaVuSans-38" x="159.033203"/>
     <use xlink:href="#DejaVuSans-34" x="222.65625"/>
     <use xlink:href="#DejaVuSans-4d" x="286.279297"/>
     <use xlink:href="#DejaVuSans-20" x="372.558594"/>
     <use xlink:href="#DejaVuSans-7c" x="404.345703"/>
     <use xlink:href="#DejaVuSans-20" x="438.037109"/>
     <use xlink:href="#DejaVuSans-24" x="469.824219"/>
     <use xlink:href="#DejaVuSans-34" x="533.447266"/>
     <use xlink:href="#DejaVuSans-35" x="597.070312"/>
     <use xlink:href="#DejaVuSans-36" x="660.693359"/>
     <use xlink:href="#DejaVuSans-2f" x="724.316406"/>
     <use xlink:href="#DejaVuSans-6b" x="758.007812"/>
     <use xlink:href="#DejaVuSans-57" x="815.917969"/>
    </g>
   </g>
   <g id="text_21">
    <!-- $0.68M | 9% | $45/kW -->
    <g transform="translate(615.864076 510.965669)scale(0.075 -0.075)">
     <defs>
      <path id="DejaVuSans-39" d="M 703 97 
L 703 672 
Q 941 559 1184 500 
Q 1428 441 1663 441 
Q 2288 441 2617 861 
Q 2947 1281 2994 2138 
Q 2813 1869 2534 1725 
Q 2256 1581 1919 1581 
Q 1219 1581 811 2004 
Q 403 2428 403 3163 
Q 403 3881 828 4315 
Q 1253 4750 1959 4750 
Q 2769 4750 3195 4129 
Q 3622 3509 3622 2328 
Q 3622 1225 3098 567 
Q 2575 -91 1691 -91 
Q 1453 -91 1209 -44 
Q 966 3 703 97 
z
M 1959 2075 
Q 2384 2075 2632 2365 
Q 2881 2656 2881 3163 
Q 2881 3666 2632 3958 
Q 2384 4250 1959 4250 
Q 1534 4250 1286 3958 
Q 1038 3666 1038 3163 
Q 1038 2656 1286 2365 
Q 1534 2075 1959 2075 
z
" transform="scale(0.015625)"/>
     </defs>
     <use xlink:href="#DejaVuSans-24"/>
     <use xlink:href="#DejaVuSans-30" x="63.623047"/>
     <use xlink:href="#DejaVuSans-2e" x="127.246094"/>
     <use xlink:href="#DejaVuSans-36" x="159.033203"/>
     <use xlink:href="#DejaVuSans-38" x="222.65625"/>
     <use xlink:href="#DejaVuSans-4d" x="286.279297"/>
     <use xlink:href="#DejaVuSans-20" x="372.558594"/>
     <use xlink:href="#DejaVuSans-7c" x="404.345703"/>
     <use xlink:href="#DejaVuSans-20" x="438.037109"/>
     <use xlink:href="#DejaVuSans-39" x="469.824219"/>
     <use xlink:href="#DejaVuSans-25" x="533.447266"/>
     <use xlink:href="#DejaVuSans-20" x="628.466797"/>
     <use xlink:href="#DejaVuSans-7c" x="660.253906"/>
     <use xlink:href="#DejaVuSans-20" x="693.945312"/>
     <use xlink:href="#DejaVuSans-24" x="725.732422"/>
     <use xlink:href="#DejaVuSans-34" x="789.355469"/>
     <use xlink:href="#DejaVuSans-35" x="852.978516"/>
     <use xlink:href="#DejaVuSans-2f" x="916.601562"/>
     <use xlink:href="#DejaVuSans-6b" x="950.292969"/>
     <use xlink:href="#DejaVuSans-57" x="1008.203125"/>
    </g>
   </g>
   <g id="text_22">
    <!-- $7.29M | $486/kW -->
    <g transform="translate(624.446208 145.712769)scale(0.072 -0.072)">
     <use xlink:href="#DejaVuSans-24"/>
     <use xlink:href="#DejaVuSans-37" x="63.623047"/>
     <use xlink:href="#DejaVuSans-2e" x="127.246094"/>
     <use xlink:href="#DejaVuSans-32" x="159.033203"/>
     <use xlink:href="#DejaVuSans-39" x="222.65625"/>
     <use xlink:href="#DejaVuSans-4d" x="286.279297"/>
     <use xlink:href="#DejaVuSans-20" x="372.558594"/>
     <use xlink:href="#DejaVuSans-7c" x="404.345703"/>
     <use xlink:href="#DejaVuSans-20" x="438.037109"/>
     <use xlink:href="#DejaVuSans-24" x="469.824219"/>
     <use xlink:href="#DejaVuSans-34" x="533.447266"/>
     <use xlink:href="#DejaVuSans-38" x="597.070312"/>
     <use xlink:href="#DejaVuSans-36" x="660.693359"/>
     <use xlink:href="#DejaVuSans-2f" x="724.316406"/>
     <use xlink:href="#DejaVuSans-6b" x="758.007812"/>
     <use xlink:href="#DejaVuSans-57" x="815.917969"/>
    </g>
   </g>
   <g id="text_23">
    <!-- $2.25M | 33% | $150/kW -->
    <g transform="translate(115.805534 435.560991)scale(0.075 -0.075)">
     <defs>
      <path id="DejaVuSans-33" d="M 2597 2516 
Q 3050 2419 3304 2112 
Q 3559 1806 3559 1356 
Q 3559 666 3084 287 
Q 2609 -91 1734 -91 
Q 1441 -91 1130 -33 
Q 819 25 488 141 
L 488 750 
Q 750 597 1062 519 
Q 1375 441 1716 441 
Q 2309 441 2620 675 
Q 2931 909 2931 1356 
Q 2931 1769 2642 2001 
Q 2353 2234 1838 2234 
L 1294 2234 
L 1294 2753 
L 1863 2753 
Q 2328 2753 2575 2939 
Q 2822 3125 2822 3475 
Q 2822 3834 2567 4026 
Q 2313 4219 1838 4219 
Q 1578 4219 1281 4162 
Q 984 4106 628 3988 
L 628 4550 
Q 988 4650 1302 4700 
Q 1616 4750 1894 4750 
Q 2613 4750 3031 4423 
Q 3450 4097 3450 3541 
Q 3450 3153 3228 2886 
Q 3006 2619 2597 2516 
z
" transform="scale(0.015625)"/>
     </defs>
     <use xlink:href="#DejaVuSans-24"/>
     <use xlink:href="#DejaVuSans-32" x="63.623047"/>
     <use xlink:href="#DejaVuSans-2e" x="127.246094"/>
     <use xlink:href="#DejaVuSans-32" x="159.033203"/>
     <use xlink:href="#DejaVuSans-35" x="222.65625"/>
     <use xlink:href="#DejaVuSans-4d" x="286.279297"/>
     <use xlink:href="#DejaVuSans-20" x="372.558594"/>
     <use xlink:href="#DejaVuSans-7c" x="404.345703"/>
     <use xlink:href="#DejaVuSans-20" x="438.037109"/>
     <use xlink:href="#DejaVuSans-33" x="469.824219"/>
     <use xlink:href="#DejaVuSans-33" x="533.447266"/>
     <use xlink:href="#DejaVuSans-25" x="597.070312"/>
     <use xlink:href="#DejaVuSans-20" x="692.089844"/>
     <use xlink:href="#DejaVuSans-7c" x="723.876953"/>
     <use xlink:href="#DejaVuSans-20" x="757.568359"/>
     <use xlink:href="#DejaVuSans-24" x="789.355469"/>
     <use xlink:href="#DejaVuSans-31" x="852.978516"/>
     <use xlink:href="#DejaVuSans-35" x="916.601562"/>
     <use xlink:href="#DejaVuSans-30" x="980.224609"/>
     <use xlink:href="#DejaVuSans-2f" x="1043.847656"/>
     <use xlink:href="#DejaVuSans-6b" x="1077.539062"/>
     <use xlink:href="#DejaVuSans-57" x="1135.449219"/>
    </g>
   </g>
   <g id="text_24">
    <!-- $2.25M | 33% | $150/kW -->
    <g transform="translate(363.448867 435.560991)scale(0.075 -0.075)">
     <use xlink:href="#DejaVuSans-24"/>
     <use xlink:href="#DejaVuSans-32" x="63.623047"/>
     <use xlink:href="#DejaVuSans-2e" x="127.246094"/>
     <use xlink:href="#DejaVuSans-32" x="159.033203"/>
     <use xlink:href="#DejaVuSans-35" x="222.65625"/>
     <use xlink:href="#DejaVuSans-4d" x="286.279297"/>
     <use xlink:href="#DejaVuSans-20" x="372.558594"/>
     <use xlink:href="#DejaVuSans-7c" x="404.345703"/>
     <use xlink:href="#DejaVuSans-20" x="438.037109"/>
     <use xlink:href="#DejaVuSans-33" x="469.824219"/>
     <use xlink:href="#DejaVuSans-33" x="533.447266"/>
     <use xlink:href="#DejaVuSans-25" x="597.070312"/>
     <use xlink:href="#DejaVuSans-20" x="692.089844"/>
     <use xlink:href="#DejaVuSans-7c" x="723.876953"/>
     <use xlink:href="#DejaVuSans-20" x="757.568359"/>
     <use xlink:href="#DejaVuSans-24" x="789.355469"/>
     <use xlink:href="#DejaVuSans-31" x="852.978516"/>
     <use xlink:href="#DejaVuSans-35" x="916.601562"/>
     <use xlink:href="#DejaVuSans-30" x="980.224609"/>
     <use xlink:href="#DejaVuSans-2f" x="1043.847656"/>
     <use xlink:href="#DejaVuSans-6b" x="1077.539062"/>
     <use xlink:href="#DejaVuSans-57" x="1135.449219"/>
    </g>
   </g>
   <g id="text_25">
    <!-- $2.25M | 31% | $150/kW -->
    <g transform="translate(611.092201 435.560991)scale(0.075 -0.075)">
     <use xlink:href="#DejaVuSans-24"/>
     <use xlink:href="#DejaVuSans-32" x="63.623047"/>
     <use xlink:href="#DejaVuSans-2e" x="127.246094"/>
     <use xlink:href="#DejaVuSans-32" x="159.033203"/>
     <use xlink:href="#DejaVuSans-35" x="222.65625"/>
     <use xlink:href="#DejaVuSans-4d" x="286.279297"/>
     <use xlink:href="#DejaVuSans-20" x="372.558594"/>
     <use xlink:href="#DejaVuSans-7c" x="404.345703"/>
     <use xlink:href="#DejaVuSans-20" x="438.037109"/>
     <use xlink:href="#DejaVuSans-33" x="469.824219"/>
     <use xlink:href="#DejaVuSans-31" x="533.447266"/>
     <use xlink:href="#DejaVuSans-25" x="597.070312"/>
     <use xlink:href="#DejaVuSans-20" x="692.089844"/>
     <use xlink:href="#DejaVuSans-7c" x="723.876953"/>
     <use xlink:href="#DejaVuSans-20" x="757.568359"/>
     <use xlink:href="#DejaVuSans-24" x="789.355469"/>
     <use xlink:href="#DejaVuSans-31" x="852.978516"/>
     <use xlink:href="#DejaVuSans-35" x="916.601562"/>
     <use xlink:href="#DejaVuSans-30" x="980.224609"/>
     <use xlink:href="#DejaVuSans-2f" x="1043.847656"/>
     <use xlink:href="#DejaVuSans-6b" x="1077.539062"/>
     <use xlink:href="#DejaVuSans-57" x="1135.449219"/>
    </g>
   </g>
   <g id="text_26">
    <!-- $2.75M | 40% | $183/kW -->
    <g transform="translate(115.805534 306.963867)scale(0.075 -0.075)">
     <use xlink:href="#DejaVuSans-24"/>
     <use xlink:href="#DejaVuSans-32" x="63.623047"/>
     <use xlink:href="#DejaVuSans-2e" x="127.246094"/>
     <use xlink:href="#DejaVuSans-37" x="159.033203"/>
     <use xlink:href="#DejaVuSans-35" x="222.65625"/>
     <use xlink:href="#DejaVuSans-4d" x="286.279297"/>
     <use xlink:href="#DejaVuSans-20" x="372.558594"/>
     <use xlink:href="#DejaVuSans-7c" x="404.345703"/>
     <use xlink:href="#DejaVuSans-20" x="438.037109"/>
     <use xlink:href="#DejaVuSans-34" x="469.824219"/>
     <use xlink:href="#DejaVuSans-30" x="533.447266"/>
     <use xlink:href="#DejaVuSans-25" x="597.070312"/>
     <use xlink:href="#DejaVuSans-20" x="692.089844"/>
     <use xlink:href="#DejaVuSans-7c" x="723.876953"/>
     <use xlink:href="#DejaVuSans-20" x="757.568359"/>
     <use xlink:href="#DejaVuSans-24" x="789.355469"/>
     <use xlink:href="#DejaVuSans-31" x="852.978516"/>
     <use xlink:href="#DejaVuSans-38" x="916.601562"/>
     <use xlink:href="#DejaVuSans-33" x="980.224609"/>
     <use xlink:href="#DejaVuSans-2f" x="1043.847656"/>
     <use xlink:href="#DejaVuSans-6b" x="1077.539062"/>
     <use xlink:href="#DejaVuSans-57" x="1135.449219"/>
    </g>
   </g>
   <g id="text_27">
    <!-- $2.75M | 40% | $183/kW -->
    <g transform="translate(363.448867 306.963867)scale(0.075 -0.075)">
     <use xlink:href="#DejaVuSans-24"/>
     <use xlink:href="#DejaVuSans-32" x="63.623047"/>
     <use xlink:href="#DejaVuSans-2e" x="127.246094"/>
     <use xlink:href="#DejaVuSans-37" x="159.033203"/>
     <use xlink:href="#DejaVuSans-35" x="222.65625"/>
     <use xlink:href="#DejaVuSans-4d" x="286.279297"/>
     <use xlink:href="#DejaVuSans-20" x="372.558594"/>
     <use xlink:href="#DejaVuSans-7c" x="404.345703"/>
     <use xlink:href="#DejaVuSans-20" x="438.037109"/>
     <use xlink:href="#DejaVuSans-34" x="469.824219"/>
     <use xlink:href="#DejaVuSans-30" x="533.447266"/>
     <use xlink:href="#DejaVuSans-25" x="597.070312"/>
     <use xlink:href="#DejaVuSans-20" x="692.089844"/>
     <use xlink:href="#DejaVuSans-7c" x="723.876953"/>
     <use xlink:href="#DejaVuSans-20" x="757.568359"/>
     <use xlink:href="#DejaVuSans-24" x="789.355469"/>
     <use xlink:href="#DejaVuSans-31" x="852.978516"/>
     <use xlink:href="#DejaVuSans-38" x="916.601562"/>
     <use xlink:href="#DejaVuSans-33" x="980.224609"/>
     <use xlink:href="#DejaVuSans-2f" x="1043.847656"/>
     <use xlink:href="#DejaVuSans-6b" x="1077.539062"/>
     <use xlink:href="#DejaVuSans-57" x="1135.449219"/>
    </g>
   </g>
   <g id="text_28">
    <!-- $2.75M | 38% | $183/kW -->
    <g transform="translate(611.092201 306.963867)scale(0.075 -0.075)">
     <use xlink:href="#DejaVuSans-24"/>
     <use xlink:href="#DejaVuSans-32" x="63.623047"/>
     <use xlink:href="#DejaVuSans-2e" x="127.246094"/>
     <use xlink:href="#DejaVuSans-37" x="159.033203"/>
     <use xlink:href="#DejaVuSans-35" x="222.65625"/>
     <use xlink:href="#DejaVuSans-4d" x="286.279297"/>
     <use xlink:href="#DejaVuSans-20" x="372.558594"/>
     <use xlink:href="#DejaVuSans-7c" x="404.345703"/>
     <use xlink:href="#DejaVuSans-20" x="438.037109"/>
     <use xlink:href="#DejaVuSans-33" x="469.824219"/>
     <use xlink:href="#DejaVuSans-38" x="533.447266"/>
     <use xlink:href="#DejaVuSans-25" x="597.070312"/>
     <use xlink:href="#DejaVuSans-20" x="692.089844"/>
     <use xlink:href="#DejaVuSans-7c" x="723.876953"/>
     <use xlink:href="#DejaVuSans-20" x="757.568359"/>
     <use xlink:href="#DejaVuSans-24" x="789.355469"/>
     <use xlink:href="#DejaVuSans-31" x="852.978516"/>
     <use xlink:href="#DejaVuSans-38" x="916.601562"/>
     <use xlink:href="#DejaVuSans-33" x="980.224609"/>
     <use xlink:href="#DejaVuSans-2f" x="1043.847656"/>
     <use xlink:href="#DejaVuSans-6b" x="1077.539062"/>
     <use xlink:href="#DejaVuSans-57" x="1135.449219"/>
    </g>
   </g>
   <g id="text_29">
    <!-- $0.31M | 5% | $21/kW -->
    <g transform="translate(120.577409 228.23344)scale(0.075 -0.075)">
     <use xlink:href="#DejaVuSans-24"/>
     <use xlink:href="#DejaVuSans-30" x="63.623047"/>
     <use xlink:href="#DejaVuSans-2e" x="127.246094"/>
     <use xlink:href="#DejaVuSans-33" x="159.033203"/>
     <use xlink:href="#DejaVuSans-31" x="222.65625"/>
     <use xlink:href="#DejaVuSans-4d" x="286.279297"/>
     <use xlink:href="#DejaVuSans-20" x="372.558594"/>
     <use xlink:href="#DejaVuSans-7c" x="404.345703"/>
     <use xlink:href="#DejaVuSans-20" x="438.037109"/>
     <use xlink:href="#DejaVuSans-35" x="469.824219"/>
     <use xlink:href="#DejaVuSans-25" x="533.447266"/>
     <use xlink:href="#DejaVuSans-20" x="628.466797"/>
     <use xlink:href="#DejaVuSans-7c" x="660.253906"/>
     <use xlink:href="#DejaVuSans-20" x="693.945312"/>
     <use xlink:href="#DejaVuSans-24" x="725.732422"/>
     <use xlink:href="#DejaVuSans-32" x="789.355469"/>
     <use xlink:href="#DejaVuSans-31" x="852.978516"/>
     <use xlink:href="#DejaVuSans-2f" x="916.601562"/>
     <use xlink:href="#DejaVuSans-6b" x="950.292969"/>
     <use xlink:href="#DejaVuSans-57" x="1008.203125"/>
    </g>
   </g>
   <g id="text_30">
    <!-- $0.98M | 14% | $66/kW -->
    <g transform="translate(365.834805 210.909934)scale(0.075 -0.075)">
     <use xlink:href="#DejaVuSans-24"/>
     <use xlink:href="#DejaVuSans-30" x="63.623047"/>
     <use xlink:href="#DejaVuSans-2e" x="127.246094"/>
     <use xlink:href="#DejaVuSans-39" x="159.033203"/>
     <use xlink:href="#DejaVuSans-38" x="222.65625"/>
     <use xlink:href="#DejaVuSans-4d" x="286.279297"/>
     <use xlink:href="#DejaVuSans-20" x="372.558594"/>
     <use xlink:href="#DejaVuSans-7c" x="404.345703"/>
     <use xlink:href="#DejaVuSans-20" x="438.037109"/>
     <use xlink:href="#DejaVuSans-31" x="469.824219"/>
     <use xlink:href="#DejaVuSans-34" x="533.447266"/>
     <use xlink:href="#DejaVuSans-25" x="597.070312"/>
     <use xlink:href="#DejaVuSans-20" x="692.089844"/>
     <use xlink:href="#DejaVuSans-7c" x="723.876953"/>
     <use xlink:href="#DejaVuSans-20" x="757.568359"/>
     <use xlink:href="#DejaVuSans-24" x="789.355469"/>
     <use xlink:href="#DejaVuSans-36" x="852.978516"/>
     <use xlink:href="#DejaVuSans-36" x="916.601562"/>
     <use xlink:href="#DejaVuSans-2f" x="980.224609"/>
     <use xlink:href="#DejaVuSans-6b" x="1013.916016"/>
     <use xlink:href="#DejaVuSans-57" x="1071.826172"/>
    </g>
   </g>
   <g id="text_31">
    <!-- $0.98M | 13% | $66/kW -->
    <g transform="translate(613.478138 210.909934)scale(0.075 -0.075)">
     <use xlink:href="#DejaVuSans-24"/>
     <use xlink:href="#DejaVuSans-30" x="63.623047"/>
     <use xlink:href="#DejaVuSans-2e" x="127.246094"/>
     <use xlink:href="#DejaVuSans-39" x="159.033203"/>
     <use xlink:href="#DejaVuSans-38" x="222.65625"/>
     <use xlink:href="#DejaVuSans-4d" x="286.279297"/>
     <use xlink:href="#DejaVuSans-20" x="372.558594"/>
     <use xlink:href="#DejaVuSans-7c" x="404.345703"/>
     <use xlink:href="#DejaVuSans-20" x="438.037109"/>
     <use xlink:href="#DejaVuSans-31" x="469.824219"/>
     <use xlink:href="#DejaVuSans-33" x="533.447266"/>
     <use xlink:href="#DejaVuSans-25" x="597.070312"/>
     <use xlink:href="#DejaVuSans-20" x="692.089844"/>
     <use xlink:href="#DejaVuSans-7c" x="723.876953"/>
     <use xlink:href="#DejaVuSans-20" x="757.568359"/>
     <use xlink:href="#DejaVuSans-24" x="789.355469"/>
     <use xlink:href="#DejaVuSans-36" x="852.978516"/>
     <use xlink:href="#DejaVuSans-36" x="916.601562"/>
     <use xlink:href="#DejaVuSans-2f" x="980.224609"/>
     <use xlink:href="#DejaVuSans-6b" x="1013.916016"/>
     <use xlink:href="#DejaVuSans-57" x="1071.826172"/>
    </g>
   </g>
   <g id="text_32">
    <!-- $0.86M | 13% | $58/kW -->
    <g transform="translate(118.191471 197.954768)scale(0.075 -0.075)">
     <use xlink:href="#DejaVuSans-24"/>
     <use xlink:href="#DejaVuSans-30" x="63.623047"/>
     <use xlink:href="#DejaVuSans-2e" x="127.246094"/>
     <use xlink:href="#DejaVuSans-38" x="159.033203"/>
     <use xlink:href="#DejaVuSans-36" x="222.65625"/>
     <use xlink:href="#DejaVuSans-4d" x="286.279297"/>
     <use xlink:href="#DejaVuSans-20" x="372.558594"/>
     <use xlink:href="#DejaVuSans-7c" x="404.345703"/>
     <use xlink:href="#DejaVuSans-20" x="438.037109"/>
     <use xlink:href="#DejaVuSans-31" x="469.824219"/>
     <use xlink:href="#DejaVuSans-33" x="533.447266"/>
     <use xlink:href="#DejaVuSans-25" x="597.070312"/>
     <use xlink:href="#DejaVuSans-20" x="692.089844"/>
     <use xlink:href="#DejaVuSans-7c" x="723.876953"/>
     <use xlink:href="#DejaVuSans-20" x="757.568359"/>
     <use xlink:href="#DejaVuSans-24" x="789.355469"/>
     <use xlink:href="#DejaVuSans-35" x="852.978516"/>
     <use xlink:href="#DejaVuSans-38" x="916.601562"/>
     <use xlink:href="#DejaVuSans-2f" x="980.224609"/>
     <use xlink:href="#DejaVuSans-6b" x="1013.916016"/>
     <use xlink:href="#DejaVuSans-57" x="1071.826172"/>
    </g>
   </g>
   <g id="text_33">
    <!-- $0.18M | 3% | $12/kW -->
    <g transform="translate(368.220742 180.841814)scale(0.075 -0.075)">
     <use xlink:href="#DejaVuSans-24"/>
     <use xlink:href="#DejaVuSans-30" x="63.623047"/>
     <use xlink:href="#DejaVuSans-2e" x="127.246094"/>
     <use xlink:href="#DejaVuSans-31" x="159.033203"/>
     <use xlink:href="#DejaVuSans-38" x="222.65625"/>
     <use xlink:href="#DejaVuSans-4d" x="286.279297"/>
     <use xlink:href="#DejaVuSans-20" x="372.558594"/>
     <use xlink:href="#DejaVuSans-7c" x="404.345703"/>
     <use xlink:href="#DejaVuSans-20" x="438.037109"/>
     <use xlink:href="#DejaVuSans-33" x="469.824219"/>
     <use xlink:href="#DejaVuSans-25" x="533.447266"/>
     <use xlink:href="#DejaVuSans-20" x="628.466797"/>
     <use xlink:href="#DejaVuSans-7c" x="660.253906"/>
     <use xlink:href="#DejaVuSans-20" x="693.945312"/>
     <use xlink:href="#DejaVuSans-24" x="725.732422"/>
     <use xlink:href="#DejaVuSans-31" x="789.355469"/>
     <use xlink:href="#DejaVuSans-32" x="852.978516"/>
     <use xlink:href="#DejaVuSans-2f" x="916.601562"/>
     <use xlink:href="#DejaVuSans-6b" x="950.292969"/>
     <use xlink:href="#DejaVuSans-57" x="1008.203125"/>
    </g>
   </g>
   <g id="text_34">
    <!-- $0.63M | 9% | $42/kW -->
    <g transform="translate(615.864076 169.365007)scale(0.075 -0.075)">
     <use xlink:href="#DejaVuSans-24"/>
     <use xlink:href="#DejaVuSans-30" x="63.623047"/>
     <use xlink:href="#DejaVuSans-2e" x="127.246094"/>
     <use xlink:href="#DejaVuSans-36" x="159.033203"/>
     <use xlink:href="#DejaVuSans-33" x="222.65625"/>
     <use xlink:href="#DejaVuSans-4d" x="286.279297"/>
     <use xlink:href="#DejaVuSans-20" x="372.558594"/>
     <use xlink:href="#DejaVuSans-7c" x="404.345703"/>
     <use xlink:href="#DejaVuSans-20" x="438.037109"/>
     <use xlink:href="#DejaVuSans-39" x="469.824219"/>
     <use xlink:href="#DejaVuSans-25" x="533.447266"/>
     <use xlink:href="#DejaVuSans-20" x="628.466797"/>
     <use xlink:href="#DejaVuSans-7c" x="660.253906"/>
     <use xlink:href="#DejaVuSans-20" x="693.945312"/>
     <use xlink:href="#DejaVuSans-24" x="725.732422"/>
     <use xlink:href="#DejaVuSans-34" x="789.355469"/>
     <use xlink:href="#DejaVuSans-32" x="852.978516"/>
     <use xlink:href="#DejaVuSans-2f" x="916.601562"/>
     <use xlink:href="#DejaVuSans-6b" x="950.292969"/>
     <use xlink:href="#DejaVuSans-57" x="1008.203125"/>
    </g>
   </g>
  </g>
 </g>
 <defs>
  <clipPath id="pf2c14d096f">
   <rect x="38.27" y="26.88" width="742.93" height="499.64"/>
  </clipPath>
 </defs>
</svg>
