<?xml version="1.0" encoding="utf-8" standalone="no"?>
<!DOCTYPE svg PUBLIC "-//W3C//DTD SVG 1.1//EN"
  "http://www.w3.org/Graphics/SVG/1.1/DTD/svg11.dtd">
<svg xmlns:xlink="http://www.w3.org/1999/xlink" width="564.108875pt" height="423.034375pt" viewBox="0 0 564.108875 423.034375" xmlns="http://www.w3.org/2000/svg" version="1.1">
 <metadata>
  <rdf:RDF xmlns:dc="http://purl.org/dc/elements/1.1/" xmlns:cc="http://creativecommons.org/ns#" xmlns:rdf="http://www.w3.org/1999/02/22-rdf-syntax-ns#">
   <cc:Work>
    <dc:type rdf:resource="http://purl.org/dc/dcmitype/StillImage"/>
    <dc:date>2026-03-13T12:19:54.022634</dc:date>
    <dc:format>image/svg+xml</dc:format>
    <dc:creator>
     <cc:Agent>
      <dc:title>Matplotlib v3.5.3, https://matplotlib.org/</dc:title>
     </cc:Agent>
    </dc:creator>
   </cc:Work>
  </rdf:RDF>
 </metadata>
 <defs>
  <style type="text/css">*{stroke-linejoin: round; stroke-linecap: butt}</style>
 </defs>
 <g id="figure_1">
  <g id="patch_1">
   <path d="M 0 423.034375 
L 564.108875 423.034375 
L 564.108875 0 
L 0 0 
z
" style="fill: #ffffff"/>
  </g>
  <g id="axes_1">
   <g id="patch_2">
    <path d="M 46.965625 385.478125 
L 410.405625 385.478125 
L 410.405625 22.318125 
L 46.965625 22.318125 
z
" style="fill: #ffffff"/>
   </g>
   <g id="patch_3">
    <path d="M 63.485625 385.478125 
L 118.552292 385.478125 
L 118.552292 240.19936 
L 63.485625 240.19936 
z
" clip-path="url(#p3365785077)" style="fill: #4c72b0; stroke: #000000; stroke-linejoin: miter"/>
   </g>
   <g id="patch_4">
    <path d="M 132.318958 385.478125 
L 187.385625 385.478125 
L 187.385625 240.19936 
L 132.318958 240.19936 
z
" clip-path="url(#p3365785077)" style="fill: #4c72b0; stroke: #000000; stroke-linejoin: miter"/>
   </g>
   <g id="patch_5">
    <path d="M 201.152292 385.478125 
L 256.218958 385.478125 
L 256.218958 240.19936 
L 201.152292 240.19936 
z
" clip-path="url(#p3365785077)" style="fill: #4c72b0; stroke: #000000; stroke-linejoin: miter"/>
   </g>
   <g id="patch_6">
    <path d="M 269.985625 385.478125 
L 325.052292 385.478125 
L 325.052292 240.19936 
L 269.985625 240.19936 
z
" clip-path="url(#p3365785077)" style="fill: #4c72b0; stroke: #000000; stroke-linejoin: miter"/>
   </g>
   <g id="patch_7">
    <path d="M 338.818958 385.478125 
L 393.885625 385.478125 
L 393.885625 240.19936 
L 338.818958 240.19936 
z
" clip-path="url(#p3365785077)" style="fill: #4c72b0; stroke: #000000; stroke-linejoin: miter"/>
   </g>
   <g id="patch_8">
    <path d="M 63.485625 240.19936 
L 118.552292 240.19936 
L 118.552292 191.773105 
L 63.485625 191.773105 
z
" clip-path="url(#p3365785077)" style="fill: #55a868; stroke: #000000; stroke-linejoin: miter"/>
   </g>
   <g id="patch_9">
    <path d="M 132.318958 240.19936 
L 187.385625 240.19936 
L 187.385625 191.773105 
L 132.318958 191.773105 
z
" clip-path="url(#p3365785077)" style="fill: #55a868; stroke: #000000; stroke-linejoin: miter"/>
   </g>
   <g id="patch_10">
    <path d="M 201.152292 240.19936 
L 256.218958 240.19936 
L 256.218958 191.773105 
L 201.152292 191.773105 
z
" clip-path="url(#p3365785077)" style="fill: #55a868; stroke: #000000; stroke-linejoin: miter"/>
   </g>
   <g id="patch_11">
    <path d="M 269.985625 240.19936 
L 325.052292 240.19936 
L 325.052292 191.773105 
L 269.985625 191.773105 
z
" clip-path="url(#p3365785077)" style="fill: #55a868; stroke: #000000; stroke-linejoin: miter"/>
   </g>
   <g id="patch_12">
    <path d="M 338.818958 240.19936 
L 393.885625 240.19936 
L 393.885625 191.773105 
L 338.818958 191.773105 
z
" clip-path="url(#p3365785077)" style="fill: #55a868; stroke: #000000; stroke-linejoin: miter"/>
   </g>
   <g id="patch_13">
    <path d="M 63.485625 191.773105 
L 118.552292 191.773105 
L 118.552292 119.133723 
L 63.485625 119.133723 
z
" clip-path="url(#p3365785077)" style="fill: #c44e52; stroke: #000000; stroke-linejoin: miter"/>
   </g>
   <g id="patch_14">
    <path d="M 132.318958 191.773105 
L 187.385625 191.773105 
L 187.385625 119.133723 
L 132.318958 119.133723 
z
" clip-path="url(#p3365785077)" style="fill: #c44e52; stroke: #000000; stroke-linejoin: miter"/>
   </g>
   <g id="patch_15">
    <path d="M 201.152292 191.773105 
L 256.218958 191.773105 
L 256.218958 119.133723 
L 201.152292 119.133723 
z
" clip-path="url(#p3365785077)" style="fill: #c44e52; stroke: #000000; stroke-linejoin: miter"/>
   </g>
   <g id="patch_16">
    <path d="M 269.985625 191.773105 
L 325.052292 191.773105 
L 325.052292 119.133723 
L 269.985625 119.133723 
z
" clip-path="url(#p3365785077)" style="fill: #c44e52; stroke: #000000; stroke-linejoin: miter"/>
   </g>
   <g id="patch_17">
    <path d="M 338.818958 191.773105 
L 393.885625 191.773105 
L 393.885625 119.133723 
L 338.818958 119.133723 
z
" clip-path="url(#p3365785077)" style="fill: #c44e52; stroke: #000000; stroke-linejoin: miter"/>
   </g>
   <g id="patch_18">
    <path d="M 63.485625 119.133723 
L 118.552292 119.133723 
L 118.552292 98.149013 
L 63.485625 98.149013 
z
" clip-path="url(#p3365785077)" style="fill: #8172b3; stroke: #000000; stroke-linejoin: miter"/>
   </g>
   <g id="patch_19">
    <path d="M 132.318958 119.133723 
L 187.385625 119.133723 
L 187.385625 98.149013 
L 132.318958 98.149013 
z
" clip-path="url(#p3365785077)" style="fill: #8172b3; stroke: #000000; stroke-linejoin: miter"/>
   </g>
   <g id="patch_20">
    <path d="M 201.152292 119.133723 
L 256.218958 119.133723 
L 256.218958 98.149013 
L 201.152292 98.149013 
z
" clip-path="url(#p3365785077)" style="fill: #8172b3; stroke: #000000; stroke-linejoin: miter"/>
   </g>
   <g id="patch_21">
    <path d="M 269.985625 119.133723 
L 325.052292 119.133723 
L 325.052292 98.149013 
L 269.985625 98.149013 
z
" clip-path="url(#p3365785077)" style="fill: #8172b3; stroke: #000000; stroke-linejoin: miter"/>
   </g>
   <g id="patch_22">
    <path d="M 338.818958 119.133723 
L 393.885625 119.133723 
L 393.885625 98.149013 
L 338.818958 98.149013 
z
" clip-path="url(#p3365785077)" style="fill: #8172b3; stroke: #000000; stroke-linejoin: miter"/>
   </g>
   <g id="patch_23">
    <path d="M 63.485625 98.149013 
L 118.552292 98.149013 
L 118.552292 39.611458 
L 63.485625 39.611458 
z
" clip-path="url(#p3365785077)" style="fill: #ccb974; stroke: #000000; stroke-linejoin: miter"/>
   </g>
   <g id="patch_24">
    <path d="M 132.318958 98.149013 
L 187.385625 98.149013 
L 187.385625 39.611458 
L 132.318958 39.611458 
z
" clip-path="url(#p3365785077)" style="fill: #ccb974; stroke: #000000; stroke-linejoin: miter"/>
   </g>
   <g id="patch_25">
    <path d="M 201.152292 98.149013 
L 256.218958 98.149013 
L 256.218958 39.611458 
L 201.152292 39.611458 
z
" clip-path="url(#p3365785077)" style="fill: #ccb974; stroke: #000000; stroke-linejoin: miter"/>
   </g>
   <g id="patch_26">
    <path d="M 269.985625 98.149013 
L 325.052292 98.149013 
L 325.052292 39.611458 
L 269.985625 39.611458 
z
" clip-path="url(#p3365785077)" style="fill: #ccb974; stroke: #000000; stroke-linejoin: miter"/>
   </g>
   <g id="patch_27">
    <path d="M 338.818958 98.149013 
L 393.885625 98.149013 
L 393.885625 39.611458 
L 338.818958 39.611458 
z
" clip-path="url(#p3365785077)" style="fill: #ccb974; stroke: #000000; stroke-linejoin: miter"/>
   </g>
   <g id="matplotlib.axis_1">
    <g id="xtick_1">
     <g id="line2d_1">
      <defs>
       <path id="m850143487e" d="M 0 0 
L 0 3.5 
" style="stroke: #000000; stroke-width: 0.8"/>
      </defs>
      <g>
       <use xlink:href="#m850143487e" x="91.018958" y="385.478125" style="stroke: #000000; stroke-width: 0.8"/>
      </g>
     </g>
     <g id="text_1">
      <!-- 16 yr -->
      <g transform="translate(78.052552 400.076562)scale(0.1 -0.1)">
       <defs>
        <path id="DejaVuSans-31" d="M 794 531 
L 1825 531 
L 1825 4091 
L 703 3866 
L 703 4441 
L 1819 4666 
L 2450 4666 
L 2450 531 
L 3481 531 
L 3481 0 
L 794 0 
L 794 531 
z
" transform="scale(0.015625)"/>
        <path id="DejaVuSans-36" d="M 2113 2584 
Q 1688 2584 1439 2293 
Q 1191 2003 1191 1497 
Q 1191 994 1439 701 
Q 1688 409 2113 409 
Q 2538 409 2786 701 
Q 3034 994 3034 1497 
Q 3034 2003 2786 2293 
Q 2538 2584 2113 2584 
z
M 3366 4563 
L 3366 3988 
Q 3128 4100 2886 4159 
Q 2644 4219 2406 4219 
Q 1781 4219 1451 3797 
Q 1122 3375 1075 2522 
Q 1259 2794 1537 2939 
Q 1816 3084 2150 3084 
Q 2853 3084 3261 2657 
Q 3669 2231 3669 1497 
Q 3669 778 3244 343 
Q 2819 -91 2113 -91 
Q 1303 -91 875 529 
Q 447 1150 447 2328 
Q 447 3434 972 4092 
Q 1497 4750 2381 4750 
Q 2619 4750 2861 4703 
Q 3103 4656 3366 4563 
z
" transform="scale(0.015625)"/>
        <path id="DejaVuSans-20" transform="scale(0.015625)"/>
        <path id="DejaVuSans-79" d="M 2059 -325 
Q 1816 -950 1584 -1140 
Q 1353 -1331 966 -1331 
L 506 -1331 
L 506 -850 
L 844 -850 
Q 1081 -850 1212 -737 
Q 1344 -625 1503 -206 
L 1606 56 
L 191 3500 
L 800 3500 
L 1894 763 
L 2988 3500 
L 3597 3500 
L 2059 -325 
z
" transform="scale(0.015625)"/>
        <path id="DejaVuSans-72" d="M 2631 2963 
Q 2534 3019 2420 3045 
Q 2306 3072 2169 3072 
Q 1681 3072 1420 2755 
Q 1159 2438 1159 1844 
L 1159 0 
L 581 0 
L 581 3500 
L 1159 3500 
L 1159 2956 
Q 1341 3275 1631 3429 
Q 1922 3584 2338 3584 
Q 2397 3584 2469 3576 
Q 2541 3569 2628 3553 
L 2631 2963 
z
" transform="scale(0.015625)"/>
       </defs>
       <use xlink:href="#DejaVuSans-31"/>
       <use xlink:href="#DejaVuSans-36" x="63.623047"/>
       <use xlink:href="#DejaVuSans-20" x="127.246094"/>
       <use xlink:href="#DejaVuSans-79" x="159.033203"/>
       <use xlink:href="#DejaVuSans-72" x="218.212891"/>
      </g>
     </g>
    </g>
    <g id="xtick_2">
     <g id="line2d_2">
      <g>
       <use xlink:href="#m850143487e" x="159.852292" y="385.478125" style="stroke: #000000; stroke-width: 0.8"/>
      </g>
     </g>
     <g id="text_2">
      <!-- 17 yr -->
      <g transform="translate(146.885885 400.076562)scale(0.1 -0.1)">
       <defs>
        <path id="DejaVuSans-37" d="M 525 4666 
L 3525 4666 
L 3525 4397 
L 1831 0 
L 1172 0 
L 2766 4134 
L 525 4134 
L 525 4666 
z
" transform="scale(0.015625)"/>
       </defs>
       <use xlink:href="#DejaVuSans-31"/>
       <use xlink:href="#DejaVuSans-37" x="63.623047"/>
       <use xlink:href="#DejaVuSans-20" x="127.246094"/>
       <use xlink:href="#DejaVuSans-79" x="159.033203"/>
       <use xlink:href="#DejaVuSans-72" x="218.212891"/>
      </g>
     </g>
    </g>
    <g id="xtick_3">
     <g id="line2d_3">
      <g>
       <use xlink:href="#m850143487e" x="228.685625" y="385.478125" style="stroke: #000000; stroke-width: 0.8"/>
      </g>
     </g>
     <g id="text_3">
      <!-- 18 yr -->
      <g transform="translate(215.719219 400.076562)scale(0.1 -0.1)">
       <defs>
        <path id="DejaVuSans-38" d="M 2034 2216 
Q 1584 2216 1326 1975 
Q 1069 1734 1069 1313 
Q 1069 891 1326 650 
Q 1584 409 2034 409 
Q 2484 409 2743 651 
Q 3003 894 3003 1313 
Q 3003 1734 2745 1975 
Q 2488 2216 2034 2216 
z
M 1403 2484 
Q 997 2584 770 2862 
Q 544 3141 544 3541 
Q 544 4100 942 4425 
Q 1341 4750 2034 4750 
Q 2731 4750 3128 4425 
Q 3525 4100 3525 3541 
Q 3525 3141 3298 2862 
Q 3072 2584 2669 2484 
Q 3125 2378 3379 2068 
Q 3634 1759 3634 1313 
Q 3634 634 3220 271 
Q 2806 -91 2034 -91 
Q 1263 -91 848 271 
Q 434 634 434 1313 
Q 434 1759 690 2068 
Q 947 2378 1403 2484 
z
M 1172 3481 
Q 1172 3119 1398 2916 
Q 1625 2713 2034 2713 
Q 2441 2713 2670 2916 
Q 2900 3119 2900 3481 
Q 2900 3844 2670 4047 
Q 2441 4250 2034 4250 
Q 1625 4250 1398 4047 
Q 1172 3844 1172 3481 
z
" transform="scale(0.015625)"/>
       </defs>
       <use xlink:href="#DejaVuSans-31"/>
       <use xlink:href="#DejaVuSans-38" x="63.623047"/>
       <use xlink:href="#DejaVuSans-20" x="127.246094"/>
       <use xlink:href="#DejaVuSans-79" x="159.033203"/>
       <use xlink:href="#DejaVuSans-72" x="218.212891"/>
      </g>
     </g>
    </g>
    <g id="xtick_4">
     <g id="line2d_4">
      <g>
       <use xlink:href="#m850143487e" x="297.518958" y="385.478125" style="stroke: #000000; stroke-width: 0.8"/>
      </g>
     </g>
     <g id="text_4">
      <!-- 19 yr -->
      <g transform="translate(284.552552 400.076562)scale(0.1 -0.1)">
       <defs>
        <path id="DejaVuSans-39" d="M 703 97 
L 703 672 
Q 941 559 1184 500 
Q 1428 441 1663 441 
Q 2288 441 2617 861 
Q 2947 1281 2994 2138 
Q 2813 1869 2534 1725 
Q 2256 1581 1919 1581 
Q 1219 1581 811 2004 
Q 403 2428 403 3163 
Q 403 3881 828 4315 
Q 1253 4750 1959 4750 
Q 2769 4750 3195 4129 
Q 3622 3509 3622 2328 
Q 3622 1225 3098 567 
Q 2575 -91 1691 -91 
Q 1453 -91 1209 -44 
Q 966 3 703 97 
z
M 1959 2075 
Q 2384 2075 2632 2365 
Q 2881 2656 2881 3163 
Q 2881 3666 2632 3958 
Q 2384 4250 1959 4250 
Q 1534 4250 1286 3958 
Q 1038 3666 1038 3163 
Q 1038 2656 1286 2365 
Q 1534 2075 1959 2075 
z
" transform="scale(0.015625)"/>
       </defs>
       <use xlink:href="#DejaVuSans-31"/>
       <use xlink:href="#DejaVuSans-39" x="63.623047"/>
       <use xlink:href="#DejaVuSans-20" x="127.246094"/>
       <use xlink:href="#DejaVuSans-79" x="159.033203"/>
       <use xlink:href="#DejaVuSans-72" x="218.212891"/>
      </g>
     </g>
    </g>
    <g id="xtick_5">
     <g id="line2d_5">
      <g>
       <use xlink:href="#m850143487e" x="366.352292" y="385.478125" style="stroke: #000000; stroke-width: 0.8"/>
      </g>
     </g>
     <g id="text_5">
      <!-- 20 yr -->
      <g transform="translate(353.385885 400.076562)scale(0.1 -0.1)">
       <defs>
        <path id="DejaVuSans-32" d="M 1228 531 
L 3431 531 
L 3431 0 
L 469 0 
L 469 531 
Q 828 903 1448 1529 
Q 2069 2156 2228 2338 
Q 2531 2678 2651 2914 
Q 2772 3150 2772 3378 
Q 2772 3750 2511 3984 
Q 2250 4219 1831 4219 
Q 1534 4219 1204 4116 
Q 875 4013 500 3803 
L 500 4441 
Q 881 4594 1212 4672 
Q 1544 4750 1819 4750 
Q 2544 4750 2975 4387 
Q 3406 4025 3406 3419 
Q 3406 3131 3298 2873 
Q 3191 2616 2906 2266 
Q 2828 2175 2409 1742 
Q 1991 1309 1228 531 
z
" transform="scale(0.015625)"/>
        <path id="DejaVuSans-30" d="M 2034 4250 
Q 1547 4250 1301 3770 
Q 1056 3291 1056 2328 
Q 1056 1369 1301 889 
Q 1547 409 2034 409 
Q 2525 409 2770 889 
Q 3016 1369 3016 2328 
Q 3016 3291 2770 3770 
Q 2525 4250 2034 4250 
z
M 2034 4750 
Q 2819 4750 3233 4129 
Q 3647 3509 3647 2328 
Q 3647 1150 3233 529 
Q 2819 -91 2034 -91 
Q 1250 -91 836 529 
Q 422 1150 422 2328 
Q 422 3509 836 4129 
Q 1250 4750 2034 4750 
z
" transform="scale(0.015625)"/>
       </defs>
       <use xlink:href="#DejaVuSans-32"/>
       <use xlink:href="#DejaVuSans-30" x="63.623047"/>
       <use xlink:href="#DejaVuSans-20" x="127.246094"/>
       <use xlink:href="#DejaVuSans-79" x="159.033203"/>
       <use xlink:href="#DejaVuSans-72" x="218.212891"/>
      </g>
     </g>
    </g>
    <g id="text_6">
     <!-- Facility Technical Life -->
     <g transform="translate(176.217656 413.754687)scale(0.1 -0.1)">
      <defs>
       <path id="DejaVuSans-46" d="M 628 4666 
L 3309 4666 
L 3309 4134 
L 1259 4134 
L 1259 2759 
L 3109 2759 
L 3109 2228 
L 1259 2228 
L 1259 0 
L 628 0 
L 628 4666 
z
" transform="scale(0.015625)"/>
       <path id="DejaVuSans-61" d="M 2194 1759 
Q 1497 1759 1228 1600 
Q 959 1441 959 1056 
Q 959 750 1161 570 
Q 1363 391 1709 391 
Q 2188 391 2477 730 
Q 2766 1069 2766 1631 
L 2766 1759 
L 2194 1759 
z
M 3341 1997 
L 3341 0 
L 2766 0 
L 2766 531 
Q 2569 213 2275 61 
Q 1981 -91 1556 -91 
Q 1019 -91 701 211 
Q 384 513 384 1019 
Q 384 1609 779 1909 
Q 1175 2209 1959 2209 
L 2766 2209 
L 2766 2266 
Q 2766 2663 2505 2880 
Q 2244 3097 1772 3097 
Q 1472 3097 1187 3025 
Q 903 2953 641 2809 
L 641 3341 
Q 956 3463 1253 3523 
Q 1550 3584 1831 3584 
Q 2591 3584 2966 3190 
Q 3341 2797 3341 1997 
z
" transform="scale(0.015625)"/>
       <path id="DejaVuSans-63" d="M 3122 3366 
L 3122 2828 
Q 2878 2963 2633 3030 
Q 2388 3097 2138 3097 
Q 1578 3097 1268 2742 
Q 959 2388 959 1747 
Q 959 1106 1268 751 
Q 1578 397 2138 397 
Q 2388 397 2633 464 
Q 2878 531 3122 666 
L 3122 134 
Q 2881 22 2623 -34 
Q 2366 -91 2075 -91 
Q 1284 -91 818 406 
Q 353 903 353 1747 
Q 353 2603 823 3093 
Q 1294 3584 2113 3584 
Q 2378 3584 2631 3529 
Q 2884 3475 3122 3366 
z
" transform="scale(0.015625)"/>
       <path id="DejaVuSans-69" d="M 603 3500 
L 1178 3500 
L 1178 0 
L 603 0 
L 603 3500 
z
M 603 4863 
L 1178 4863 
L 1178 4134 
L 603 4134 
L 603 4863 
z
" transform="scale(0.015625)"/>
       <path id="DejaVuSans-6c" d="M 603 4863 
L 1178 4863 
L 1178 0 
L 603 0 
L 603 4863 
z
" transform="scale(0.015625)"/>
       <path id="DejaVuSans-74" d="M 1172 4494 
L 1172 3500 
L 2356 3500 
L 2356 3053 
L 1172 3053 
L 1172 1153 
Q 1172 725 1289 603 
Q 1406 481 1766 481 
L 2356 481 
L 2356 0 
L 1766 0 
Q 1100 0 847 248 
Q 594 497 594 1153 
L 594 3053 
L 172 3053 
L 172 3500 
L 594 3500 
L 594 4494 
L 1172 4494 
z
" transform="scale(0.015625)"/>
       <path id="DejaVuSans-54" d="M -19 4666 
L 3928 4666 
L 3928 4134 
L 2272 4134 
L 2272 0 
L 1638 0 
L 1638 4134 
L -19 4134 
L -19 4666 
z
" transform="scale(0.015625)"/>
       <path id="DejaVuSans-65" d="M 3597 1894 
L 3597 1613 
L 953 1613 
Q 991 1019 1311 708 
Q 1631 397 2203 397 
Q 2534 397 2845 478 
Q 3156 559 3463 722 
L 3463 178 
Q 3153 47 2828 -22 
Q 2503 -91 2169 -91 
Q 1331 -91 842 396 
Q 353 884 353 1716 
Q 353 2575 817 3079 
Q 1281 3584 2069 3584 
Q 2775 3584 3186 3129 
Q 3597 2675 3597 1894 
z
M 3022 2063 
Q 3016 2534 2758 2815 
Q 2500 3097 2075 3097 
Q 1594 3097 1305 2825 
Q 1016 2553 972 2059 
L 3022 2063 
z
" transform="scale(0.015625)"/>
       <path id="DejaVuSans-68" d="M 3513 2113 
L 3513 0 
L 2938 0 
L 2938 2094 
Q 2938 2591 2744 2837 
Q 2550 3084 2163 3084 
Q 1697 3084 1428 2787 
Q 1159 2491 1159 1978 
L 1159 0 
L 581 0 
L 581 4863 
L 1159 4863 
L 1159 2956 
Q 1366 3272 1645 3428 
Q 1925 3584 2291 3584 
Q 2894 3584 3203 3211 
Q 3513 2838 3513 2113 
z
" transform="scale(0.015625)"/>
       <path id="DejaVuSans-6e" d="M 3513 2113 
L 3513 0 
L 2938 0 
L 2938 2094 
Q 2938 2591 2744 2837 
Q 2550 3084 2163 3084 
Q 1697 3084 1428 2787 
Q 1159 2491 1159 1978 
L 1159 0 
L 581 0 
L 581 3500 
L 1159 3500 
L 1159 2956 
Q 1366 3272 1645 3428 
Q 1925 3584 2291 3584 
Q 2894 3584 3203 3211 
Q 3513 2838 3513 2113 
z
" transform="scale(0.015625)"/>
       <path id="DejaVuSans-4c" d="M 628 4666 
L 1259 4666 
L 1259 531 
L 3531 531 
L 3531 0 
L 628 0 
L 628 4666 
z
" transform="scale(0.015625)"/>
       <path id="DejaVuSans-66" d="M 2375 4863 
L 2375 4384 
L 1825 4384 
Q 1516 4384 1395 4259 
Q 1275 4134 1275 3809 
L 1275 3500 
L 2222 3500 
L 2222 3053 
L 1275 3053 
L 1275 0 
L 697 0 
L 697 3053 
L 147 3053 
L 147 3500 
L 697 3500 
L 697 3744 
Q 697 4328 969 4595 
Q 1241 4863 1831 4863 
L 2375 4863 
z
" transform="scale(0.015625)"/>
      </defs>
      <use xlink:href="#DejaVuSans-46"/>
      <use xlink:href="#DejaVuSans-61" x="48.394531"/>
      <use xlink:href="#DejaVuSans-63" x="109.673828"/>
      <use xlink:href="#DejaVuSans-69" x="164.654297"/>
      <use xlink:href="#DejaVuSans-6c" x="192.4375"/>
      <use xlink:href="#DejaVuSans-69" x="220.220703"/>
      <use xlink:href="#DejaVuSans-74" x="248.003906"/>
      <use xlink:href="#DejaVuSans-79" x="287.212891"/>
      <use xlink:href="#DejaVuSans-20" x="346.392578"/>
      <use xlink:href="#DejaVuSans-54" x="378.179688"/>
      <use xlink:href="#DejaVuSans-65" x="422.263672"/>
      <use xlink:href="#DejaVuSans-63" x="483.787109"/>
      <use xlink:href="#DejaVuSans-68" x="538.767578"/>
      <use xlink:href="#DejaVuSans-6e" x="602.146484"/>
      <use xlink:href="#DejaVuSans-69" x="665.525391"/>
      <use xlink:href="#DejaVuSans-63" x="693.308594"/>
      <use xlink:href="#DejaVuSans-61" x="748.289062"/>
      <use xlink:href="#DejaVuSans-6c" x="809.568359"/>
      <use xlink:href="#DejaVuSans-20" x="837.351562"/>
      <use xlink:href="#DejaVuSans-4c" x="869.138672"/>
      <use xlink:href="#DejaVuSans-69" x="924.851562"/>
      <use xlink:href="#DejaVuSans-66" x="952.634766"/>
      <use xlink:href="#DejaVuSans-65" x="987.839844"/>
     </g>
    </g>
   </g>
   <g id="matplotlib.axis_2">
    <g id="ytick_1">
     <g id="line2d_6">
      <defs>
       <path id="md203557c3e" d="M 0 0 
L -3.5 0 
" style="stroke: #000000; stroke-width: 0.8"/>
      </defs>
      <g>
       <use xlink:href="#md203557c3e" x="46.965625" y="385.478125" style="stroke: #000000; stroke-width: 0.8"/>
      </g>
     </g>
     <g id="text_7">
      <!-- 0 -->
      <g transform="translate(33.603125 389.277344)scale(0.1 -0.1)">
       <use xlink:href="#DejaVuSans-30"/>
      </g>
     </g>
    </g>
    <g id="ytick_2">
     <g id="line2d_7">
      <g>
       <use xlink:href="#md203557c3e" x="46.965625" y="320.909785" style="stroke: #000000; stroke-width: 0.8"/>
      </g>
     </g>
     <g id="text_8">
      <!-- 20 -->
      <g transform="translate(27.240625 324.709004)scale(0.1 -0.1)">
       <use xlink:href="#DejaVuSans-32"/>
       <use xlink:href="#DejaVuSans-30" x="63.623047"/>
      </g>
     </g>
    </g>
    <g id="ytick_3">
     <g id="line2d_8">
      <g>
       <use xlink:href="#md203557c3e" x="46.965625" y="256.341445" style="stroke: #000000; stroke-width: 0.8"/>
      </g>
     </g>
     <g id="text_9">
      <!-- 40 -->
      <g transform="translate(27.240625 260.140664)scale(0.1 -0.1)">
       <defs>
        <path id="DejaVuSans-34" d="M 2419 4116 
L 825 1625 
L 2419 1625 
L 2419 4116 
z
M 2253 4666 
L 3047 4666 
L 3047 1625 
L 3713 1625 
L 3713 1100 
L 3047 1100 
L 3047 0 
L 2419 0 
L 2419 1100 
L 313 1100 
L 313 1709 
L 2253 4666 
z
" transform="scale(0.015625)"/>
       </defs>
       <use xlink:href="#DejaVuSans-34"/>
       <use xlink:href="#DejaVuSans-30" x="63.623047"/>
      </g>
     </g>
    </g>
    <g id="ytick_4">
     <g id="line2d_9">
      <g>
       <use xlink:href="#md203557c3e" x="46.965625" y="191.773105" style="stroke: #000000; stroke-width: 0.8"/>
      </g>
     </g>
     <g id="text_10">
      <!-- 60 -->
      <g transform="translate(27.240625 195.572324)scale(0.1 -0.1)">
       <use xlink:href="#DejaVuSans-36"/>
       <use xlink:href="#DejaVuSans-30" x="63.623047"/>
      </g>
     </g>
    </g>
    <g id="ytick_5">
     <g id="line2d_10">
      <g>
       <use xlink:href="#md203557c3e" x="46.965625" y="127.204765" style="stroke: #000000; stroke-width: 0.8"/>
      </g>
     </g>
     <g id="text_11">
      <!-- 80 -->
      <g transform="translate(27.240625 131.003984)scale(0.1 -0.1)">
       <use xlink:href="#DejaVuSans-38"/>
       <use xlink:href="#DejaVuSans-30" x="63.623047"/>
      </g>
     </g>
    </g>
    <g id="ytick_6">
     <g id="line2d_11">
      <g>
       <use xlink:href="#md203557c3e" x="46.965625" y="62.636426" style="stroke: #000000; stroke-width: 0.8"/>
      </g>
     </g>
     <g id="text_12">
      <!-- 100 -->
      <g transform="translate(20.878125 66.435644)scale(0.1 -0.1)">
       <use xlink:href="#DejaVuSans-31"/>
       <use xlink:href="#DejaVuSans-30" x="63.623047"/>
       <use xlink:href="#DejaVuSans-30" x="127.246094"/>
      </g>
     </g>
    </g>
    <g id="text_13">
     <!-- LFP Cell Price ($/kWh) -->
     <g transform="translate(14.798438 258.660625)rotate(-90)scale(0.1 -0.1)">
      <defs>
       <path id="DejaVuSans-50" d="M 1259 4147 
L 1259 2394 
L 2053 2394 
Q 2494 2394 2734 2622 
Q 2975 2850 2975 3272 
Q 2975 3691 2734 3919 
Q 2494 4147 2053 4147 
L 1259 4147 
z
M 628 4666 
L 2053 4666 
Q 2838 4666 3239 4311 
Q 3641 3956 3641 3272 
Q 3641 2581 3239 2228 
Q 2838 1875 2053 1875 
L 1259 1875 
L 1259 0 
L 628 0 
L 628 4666 
z
" transform="scale(0.015625)"/>
       <path id="DejaVuSans-43" d="M 4122 4306 
L 4122 3641 
Q 3803 3938 3442 4084 
Q 3081 4231 2675 4231 
Q 1875 4231 1450 3742 
Q 1025 3253 1025 2328 
Q 1025 1406 1450 917 
Q 1875 428 2675 428 
Q 3081 428 3442 575 
Q 3803 722 4122 1019 
L 4122 359 
Q 3791 134 3420 21 
Q 3050 -91 2638 -91 
Q 1578 -91 968 557 
Q 359 1206 359 2328 
Q 359 3453 968 4101 
Q 1578 4750 2638 4750 
Q 3056 4750 3426 4639 
Q 3797 4528 4122 4306 
z
" transform="scale(0.015625)"/>
       <path id="DejaVuSans-28" d="M 1984 4856 
Q 1566 4138 1362 3434 
Q 1159 2731 1159 2009 
Q 1159 1288 1364 580 
Q 1569 -128 1984 -844 
L 1484 -844 
Q 1016 -109 783 600 
Q 550 1309 550 2009 
Q 550 2706 781 3412 
Q 1013 4119 1484 4856 
L 1984 4856 
z
" transform="scale(0.015625)"/>
       <path id="DejaVuSans-24" d="M 2163 -941 
L 1850 -941 
L 1847 0 
Q 1519 6 1191 76 
Q 863 147 531 288 
L 531 850 
Q 850 650 1176 548 
Q 1503 447 1850 444 
L 1850 1869 
Q 1159 1981 845 2250 
Q 531 2519 531 2988 
Q 531 3497 872 3790 
Q 1213 4084 1850 4128 
L 1850 4863 
L 2163 4863 
L 2163 4138 
Q 2453 4125 2725 4076 
Q 2997 4028 3256 3944 
L 3256 3397 
Q 2997 3528 2723 3600 
Q 2450 3672 2163 3684 
L 2163 2350 
Q 2872 2241 3206 1959 
Q 3541 1678 3541 1191 
Q 3541 663 3186 358 
Q 2831 53 2163 6 
L 2163 -941 
z
M 1850 2406 
L 1850 3688 
Q 1488 3647 1297 3481 
Q 1106 3316 1106 3041 
Q 1106 2772 1282 2622 
Q 1459 2472 1850 2406 
z
M 2163 1806 
L 2163 453 
Q 2559 506 2761 678 
Q 2963 850 2963 1131 
Q 2963 1406 2770 1568 
Q 2578 1731 2163 1806 
z
" transform="scale(0.015625)"/>
       <path id="DejaVuSans-2f" d="M 1625 4666 
L 2156 4666 
L 531 -594 
L 0 -594 
L 1625 4666 
z
" transform="scale(0.015625)"/>
       <path id="DejaVuSans-6b" d="M 581 4863 
L 1159 4863 
L 1159 1991 
L 2875 3500 
L 3609 3500 
L 1753 1863 
L 3688 0 
L 2938 0 
L 1159 1709 
L 1159 0 
L 581 0 
L 581 4863 
z
" transform="scale(0.015625)"/>
       <path id="DejaVuSans-57" d="M 213 4666 
L 850 4666 
L 1831 722 
L 2809 4666 
L 3519 4666 
L 4500 722 
L 5478 4666 
L 6119 4666 
L 4947 0 
L 4153 0 
L 3169 4050 
L 2175 0 
L 1381 0 
L 213 4666 
z
" transform="scale(0.015625)"/>
       <path id="DejaVuSans-29" d="M 513 4856 
L 1013 4856 
Q 1481 4119 1714 3412 
Q 1947 2706 1947 2009 
Q 1947 1309 1714 600 
Q 1481 -109 1013 -844 
L 513 -844 
Q 928 -128 1133 580 
Q 1338 1288 1338 2009 
Q 1338 2731 1133 3434 
Q 928 4138 513 4856 
z
" transform="scale(0.015625)"/>
      </defs>
      <use xlink:href="#DejaVuSans-4c"/>
      <use xlink:href="#DejaVuSans-46" x="55.712891"/>
      <use xlink:href="#DejaVuSans-50" x="113.232422"/>
      <use xlink:href="#DejaVuSans-20" x="173.535156"/>
      <use xlink:href="#DejaVuSans-43" x="205.322266"/>
      <use xlink:href="#DejaVuSans-65" x="275.146484"/>
      <use xlink:href="#DejaVuSans-6c" x="336.669922"/>
      <use xlink:href="#DejaVuSans-6c" x="364.453125"/>
      <use xlink:href="#DejaVuSans-20" x="392.236328"/>
      <use xlink:href="#DejaVuSans-50" x="424.023438"/>
      <use xlink:href="#DejaVuSans-72" x="482.576172"/>
      <use xlink:href="#DejaVuSans-69" x="523.689453"/>
      <use xlink:href="#DejaVuSans-63" x="551.472656"/>
      <use xlink:href="#DejaVuSans-65" x="606.453125"/>
      <use xlink:href="#DejaVuSans-20" x="667.976562"/>
      <use xlink:href="#DejaVuSans-28" x="699.763672"/>
      <use xlink:href="#DejaVuSans-24" x="738.777344"/>
      <use xlink:href="#DejaVuSans-2f" x="802.400391"/>
      <use xlink:href="#DejaVuSans-6b" x="836.091797"/>
      <use xlink:href="#DejaVuSans-57" x="894.001953"/>
      <use xlink:href="#DejaVuSans-68" x="992.878906"/>
      <use xlink:href="#DejaVuSans-29" x="1056.257812"/>
     </g>
    </g>
   </g>
   <g id="patch_28">
    <path d="M 46.965625 385.478125 
L 46.965625 22.318125 
" style="fill: none; stroke: #000000; stroke-width: 0.8; stroke-linejoin: miter; stroke-linecap: square"/>
   </g>
   <g id="patch_29">
    <path d="M 410.405625 385.478125 
L 410.405625 22.318125 
" style="fill: none; stroke: #000000; stroke-width: 0.8; stroke-linejoin: miter; stroke-linecap: square"/>
   </g>
   <g id="patch_30">
    <path d="M 46.965625 385.478125 
L 410.405625 385.478125 
" style="fill: none; stroke: #000000; stroke-width: 0.8; stroke-linejoin: miter; stroke-linecap: square"/>
   </g>
   <g id="patch_31">
    <path d="M 46.965625 22.318125 
L 410.405625 22.318125 
" style="fill: none; stroke: #000000; stroke-width: 0.8; stroke-linejoin: miter; stroke-linecap: square"/>
   </g>
   <g id="text_14">
    <!-- 45 -->
    <g transform="translate(86.565208 314.770305)scale(0.07 -0.07)">
     <defs>
      <path id="DejaVuSans-35" d="M 691 4666 
L 3169 4666 
L 3169 4134 
L 1269 4134 
L 1269 2991 
Q 1406 3038 1543 3061 
Q 1681 3084 1819 3084 
Q 2600 3084 3056 2656 
Q 3513 2228 3513 1497 
Q 3513 744 3044 326 
Q 2575 -91 1722 -91 
Q 1428 -91 1123 -41 
Q 819 9 494 109 
L 494 744 
Q 775 591 1075 516 
Q 1375 441 1709 441 
Q 2250 441 2565 725 
Q 2881 1009 2881 1497 
Q 2881 1984 2565 2268 
Q 2250 2553 1709 2553 
Q 1456 2553 1204 2497 
Q 953 2441 691 2322 
L 691 4666 
z
" transform="scale(0.015625)"/>
     </defs>
     <use xlink:href="#DejaVuSans-34"/>
     <use xlink:href="#DejaVuSans-35" x="63.623047"/>
    </g>
   </g>
   <g id="text_15">
    <!-- 45 -->
    <g transform="translate(155.398542 314.770305)scale(0.07 -0.07)">
     <use xlink:href="#DejaVuSans-34"/>
     <use xlink:href="#DejaVuSans-35" x="63.623047"/>
    </g>
   </g>
   <g id="text_16">
    <!-- 45 -->
    <g transform="translate(224.231875 314.770305)scale(0.07 -0.07)">
     <use xlink:href="#DejaVuSans-34"/>
     <use xlink:href="#DejaVuSans-35" x="63.623047"/>
    </g>
   </g>
   <g id="text_17">
    <!-- 45 -->
    <g transform="translate(293.065208 314.770305)scale(0.07 -0.07)">
     <use xlink:href="#DejaVuSans-34"/>
     <use xlink:href="#DejaVuSans-35" x="63.623047"/>
    </g>
   </g>
   <g id="text_18">
    <!-- 45 -->
    <g transform="translate(361.898542 314.770305)scale(0.07 -0.07)">
     <use xlink:href="#DejaVuSans-34"/>
     <use xlink:href="#DejaVuSans-35" x="63.623047"/>
    </g>
   </g>
   <g id="text_19">
    <!-- 15 -->
    <g transform="translate(86.565208 217.917795)scale(0.07 -0.07)">
     <use xlink:href="#DejaVuSans-31"/>
     <use xlink:href="#DejaVuSans-35" x="63.623047"/>
    </g>
   </g>
   <g id="text_20">
    <!-- 15 -->
    <g transform="translate(155.398542 217.917795)scale(0.07 -0.07)">
     <use xlink:href="#DejaVuSans-31"/>
     <use xlink:href="#DejaVuSans-35" x="63.623047"/>
    </g>
   </g>
   <g id="text_21">
    <!-- 15 -->
    <g transform="translate(224.231875 217.917795)scale(0.07 -0.07)">
     <use xlink:href="#DejaVuSans-31"/>
     <use xlink:href="#DejaVuSans-35" x="63.623047"/>
    </g>
   </g>
   <g id="text_22">
    <!-- 15 -->
    <g transform="translate(293.065208 217.917795)scale(0.07 -0.07)">
     <use xlink:href="#DejaVuSans-31"/>
     <use xlink:href="#DejaVuSans-35" x="63.623047"/>
    </g>
   </g>
   <g id="text_23">
    <!-- 15 -->
    <g transform="translate(361.898542 217.917795)scale(0.07 -0.07)">
     <use xlink:href="#DejaVuSans-31"/>
     <use xlink:href="#DejaVuSans-35" x="63.623047"/>
    </g>
   </g>
   <g id="text_24">
    <!-- 22 -->
    <g transform="translate(86.565208 157.384977)scale(0.07 -0.07)">
     <use xlink:href="#DejaVuSans-32"/>
     <use xlink:href="#DejaVuSans-32" x="63.623047"/>
    </g>
   </g>
   <g id="text_25">
    <!-- 22 -->
    <g transform="translate(155.398542 157.384977)scale(0.07 -0.07)">
     <use xlink:href="#DejaVuSans-32"/>
     <use xlink:href="#DejaVuSans-32" x="63.623047"/>
    </g>
   </g>
   <g id="text_26">
    <!-- 22 -->
    <g transform="translate(224.231875 157.384977)scale(0.07 -0.07)">
     <use xlink:href="#DejaVuSans-32"/>
     <use xlink:href="#DejaVuSans-32" x="63.623047"/>
    </g>
   </g>
   <g id="text_27">
    <!-- 22 -->
    <g transform="translate(293.065208 157.384977)scale(0.07 -0.07)">
     <use xlink:href="#DejaVuSans-32"/>
     <use xlink:href="#DejaVuSans-32" x="63.623047"/>
    </g>
   </g>
   <g id="text_28">
    <!-- 22 -->
    <g transform="translate(361.898542 157.384977)scale(0.07 -0.07)">
     <use xlink:href="#DejaVuSans-32"/>
     <use xlink:href="#DejaVuSans-32" x="63.623047"/>
    </g>
   </g>
   <g id="text_29">
    <!-- 6 -->
    <g transform="translate(88.792083 110.57293)scale(0.07 -0.07)">
     <use xlink:href="#DejaVuSans-36"/>
    </g>
   </g>
   <g id="text_30">
    <!-- 6 -->
    <g transform="translate(157.625417 110.57293)scale(0.07 -0.07)">
     <use xlink:href="#DejaVuSans-36"/>
    </g>
   </g>
   <g id="text_31">
    <!-- 6 -->
    <g transform="translate(226.45875 110.57293)scale(0.07 -0.07)">
     <use xlink:href="#DejaVuSans-36"/>
    </g>
   </g>
   <g id="text_32">
    <!-- 6 -->
    <g transform="translate(295.292083 110.57293)scale(0.07 -0.07)">
     <use xlink:href="#DejaVuSans-36"/>
    </g>
   </g>
   <g id="text_33">
    <!-- 6 -->
    <g transform="translate(364.125417 110.57293)scale(0.07 -0.07)">
     <use xlink:href="#DejaVuSans-36"/>
    </g>
   </g>
   <g id="text_34">
    <!-- 18.13 -->
    <g transform="translate(80.999115 66.892564)scale(0.07 -0.07)">
     <defs>
      <path id="DejaVuSans-2e" d="M 684 794 
L 1344 794 
L 1344 0 
L 684 0 
L 684 794 
z
" transform="scale(0.015625)"/>
      <path id="DejaVuSans-33" d="M 2597 2516 
Q 3050 2419 3304 2112 
Q 3559 1806 3559 1356 
Q 3559 666 3084 287 
Q 2609 -91 1734 -91 
Q 1441 -91 1130 -33 
Q 819 25 488 141 
L 488 750 
Q 750 597 1062 519 
Q 1375 441 1716 441 
Q 2309 441 2620 675 
Q 2931 909 2931 1356 
Q 2931 1769 2642 2001 
Q 2353 2234 1838 2234 
L 1294 2234 
L 1294 2753 
L 1863 2753 
Q 2328 2753 2575 2939 
Q 2822 3125 2822 3475 
Q 2822 3834 2567 4026 
Q 2313 4219 1838 4219 
Q 1578 4219 1281 4162 
Q 984 4106 628 3988 
L 628 4550 
Q 988 4650 1302 4700 
Q 1616 4750 1894 4750 
Q 2613 4750 3031 4423 
Q 3450 4097 3450 3541 
Q 3450 3153 3228 2886 
Q 3006 2619 2597 2516 
z
" transform="scale(0.015625)"/>
     </defs>
     <use xlink:href="#DejaVuSans-31"/>
     <use xlink:href="#DejaVuSans-38" x="63.623047"/>
     <use xlink:href="#DejaVuSans-2e" x="127.246094"/>
     <use xlink:href="#DejaVuSans-31" x="159.033203"/>
     <use xlink:href="#DejaVuSans-33" x="222.65625"/>
    </g>
    <!-- (OM = 20.37%) -->
    <g transform="translate(64.009896 74.731032)scale(0.07 -0.07)">
     <defs>
      <path id="DejaVuSans-4f" d="M 2522 4238 
Q 1834 4238 1429 3725 
Q 1025 3213 1025 2328 
Q 1025 1447 1429 934 
Q 1834 422 2522 422 
Q 3209 422 3611 934 
Q 4013 1447 4013 2328 
Q 4013 3213 3611 3725 
Q 3209 4238 2522 4238 
z
M 2522 4750 
Q 3503 4750 4090 4092 
Q 4678 3434 4678 2328 
Q 4678 1225 4090 567 
Q 3503 -91 2522 -91 
Q 1538 -91 948 565 
Q 359 1222 359 2328 
Q 359 3434 948 4092 
Q 1538 4750 2522 4750 
z
" transform="scale(0.015625)"/>
      <path id="DejaVuSans-4d" d="M 628 4666 
L 1569 4666 
L 2759 1491 
L 3956 4666 
L 4897 4666 
L 4897 0 
L 4281 0 
L 4281 4097 
L 3078 897 
L 2444 897 
L 1241 4097 
L 1241 0 
L 628 0 
L 628 4666 
z
" transform="scale(0.015625)"/>
      <path id="DejaVuSans-3d" d="M 678 2906 
L 4684 2906 
L 4684 2381 
L 678 2381 
L 678 2906 
z
M 678 1631 
L 4684 1631 
L 4684 1100 
L 678 1100 
L 678 1631 
z
" transform="scale(0.015625)"/>
      <path id="DejaVuSans-25" d="M 4653 2053 
Q 4381 2053 4226 1822 
Q 4072 1591 4072 1178 
Q 4072 772 4226 539 
Q 4381 306 4653 306 
Q 4919 306 5073 539 
Q 5228 772 5228 1178 
Q 5228 1588 5073 1820 
Q 4919 2053 4653 2053 
z
M 4653 2450 
Q 5147 2450 5437 2106 
Q 5728 1763 5728 1178 
Q 5728 594 5436 251 
Q 5144 -91 4653 -91 
Q 4153 -91 3862 251 
Q 3572 594 3572 1178 
Q 3572 1766 3864 2108 
Q 4156 2450 4653 2450 
z
M 1428 4353 
Q 1159 4353 1004 4120 
Q 850 3888 850 3481 
Q 850 3069 1003 2837 
Q 1156 2606 1428 2606 
Q 1700 2606 1854 2837 
Q 2009 3069 2009 3481 
Q 2009 3884 1853 4118 
Q 1697 4353 1428 4353 
z
M 4250 4750 
L 4750 4750 
L 1831 -91 
L 1331 -91 
L 4250 4750 
z
M 1428 4750 
Q 1922 4750 2215 4408 
Q 2509 4066 2509 3481 
Q 2509 2891 2217 2550 
Q 1925 2209 1428 2209 
Q 931 2209 642 2551 
Q 353 2894 353 3481 
Q 353 4063 643 4406 
Q 934 4750 1428 4750 
z
" transform="scale(0.015625)"/>
     </defs>
     <use xlink:href="#DejaVuSans-28"/>
     <use xlink:href="#DejaVuSans-4f" x="39.013672"/>
     <use xlink:href="#DejaVuSans-4d" x="117.724609"/>
     <use xlink:href="#DejaVuSans-20" x="204.003906"/>
     <use xlink:href="#DejaVuSans-3d" x="235.791016"/>
     <use xlink:href="#DejaVuSans-20" x="319.580078"/>
     <use xlink:href="#DejaVuSans-32" x="351.367188"/>
     <use xlink:href="#DejaVuSans-30" x="414.990234"/>
     <use xlink:href="#DejaVuSans-2e" x="478.613281"/>
     <use xlink:href="#DejaVuSans-33" x="510.400391"/>
     <use xlink:href="#DejaVuSans-37" x="574.023438"/>
     <use xlink:href="#DejaVuSans-25" x="637.646484"/>
     <use xlink:href="#DejaVuSans-29" x="732.666016"/>
    </g>
   </g>
   <g id="text_35">
    <!-- 18.13 -->
    <g transform="translate(149.832448 66.892564)scale(0.07 -0.07)">
     <use xlink:href="#DejaVuSans-31"/>
     <use xlink:href="#DejaVuSans-38" x="63.623047"/>
     <use xlink:href="#DejaVuSans-2e" x="127.246094"/>
     <use xlink:href="#DejaVuSans-31" x="159.033203"/>
     <use xlink:href="#DejaVuSans-33" x="222.65625"/>
    </g>
    <!-- (OM = 20.37%) -->
    <g transform="translate(132.843229 74.731032)scale(0.07 -0.07)">
     <use xlink:href="#DejaVuSans-28"/>
     <use xlink:href="#DejaVuSans-4f" x="39.013672"/>
     <use xlink:href="#DejaVuSans-4d" x="117.724609"/>
     <use xlink:href="#DejaVuSans-20" x="204.003906"/>
     <use xlink:href="#DejaVuSans-3d" x="235.791016"/>
     <use xlink:href="#DejaVuSans-20" x="319.580078"/>
     <use xlink:href="#DejaVuSans-32" x="351.367188"/>
     <use xlink:href="#DejaVuSans-30" x="414.990234"/>
     <use xlink:href="#DejaVuSans-2e" x="478.613281"/>
     <use xlink:href="#DejaVuSans-33" x="510.400391"/>
     <use xlink:href="#DejaVuSans-37" x="574.023438"/>
     <use xlink:href="#DejaVuSans-25" x="637.646484"/>
     <use xlink:href="#DejaVuSans-29" x="732.666016"/>
    </g>
   </g>
   <g id="text_36">
    <!-- 18.13 -->
    <g transform="translate(218.665781 66.892564)scale(0.07 -0.07)">
     <use xlink:href="#DejaVuSans-31"/>
     <use xlink:href="#DejaVuSans-38" x="63.623047"/>
     <use xlink:href="#DejaVuSans-2e" x="127.246094"/>
     <use xlink:href="#DejaVuSans-31" x="159.033203"/>
     <use xlink:href="#DejaVuSans-33" x="222.65625"/>
    </g>
    <!-- (OM = 20.37%) -->
    <g transform="translate(201.676563 74.731032)scale(0.07 -0.07)">
     <use xlink:href="#DejaVuSans-28"/>
     <use xlink:href="#DejaVuSans-4f" x="39.013672"/>
     <use xlink:href="#DejaVuSans-4d" x="117.724609"/>
     <use xlink:href="#DejaVuSans-20" x="204.003906"/>
     <use xlink:href="#DejaVuSans-3d" x="235.791016"/>
     <use xlink:href="#DejaVuSans-20" x="319.580078"/>
     <use xlink:href="#DejaVuSans-32" x="351.367188"/>
     <use xlink:href="#DejaVuSans-30" x="414.990234"/>
     <use xlink:href="#DejaVuSans-2e" x="478.613281"/>
     <use xlink:href="#DejaVuSans-33" x="510.400391"/>
     <use xlink:href="#DejaVuSans-37" x="574.023438"/>
     <use xlink:href="#DejaVuSans-25" x="637.646484"/>
     <use xlink:href="#DejaVuSans-29" x="732.666016"/>
    </g>
   </g>
   <g id="text_37">
    <!-- 18.13 -->
    <g transform="translate(287.499115 66.892564)scale(0.07 -0.07)">
     <use xlink:href="#DejaVuSans-31"/>
     <use xlink:href="#DejaVuSans-38" x="63.623047"/>
     <use xlink:href="#DejaVuSans-2e" x="127.246094"/>
     <use xlink:href="#DejaVuSans-31" x="159.033203"/>
     <use xlink:href="#DejaVuSans-33" x="222.65625"/>
    </g>
    <!-- (OM = 20.37%) -->
    <g transform="translate(270.509896 74.731032)scale(0.07 -0.07)">
     <use xlink:href="#DejaVuSans-28"/>
     <use xlink:href="#DejaVuSans-4f" x="39.013672"/>
     <use xlink:href="#DejaVuSans-4d" x="117.724609"/>
     <use xlink:href="#DejaVuSans-20" x="204.003906"/>
     <use xlink:href="#DejaVuSans-3d" x="235.791016"/>
     <use xlink:href="#DejaVuSans-20" x="319.580078"/>
     <use xlink:href="#DejaVuSans-32" x="351.367188"/>
     <use xlink:href="#DejaVuSans-30" x="414.990234"/>
     <use xlink:href="#DejaVuSans-2e" x="478.613281"/>
     <use xlink:href="#DejaVuSans-33" x="510.400391"/>
     <use xlink:href="#DejaVuSans-37" x="574.023438"/>
     <use xlink:href="#DejaVuSans-25" x="637.646484"/>
     <use xlink:href="#DejaVuSans-29" x="732.666016"/>
    </g>
   </g>
   <g id="text_38">
    <!-- 18.13 -->
    <g transform="translate(356.332448 66.892564)scale(0.07 -0.07)">
     <use xlink:href="#DejaVuSans-31"/>
     <use xlink:href="#DejaVuSans-38" x="63.623047"/>
     <use xlink:href="#DejaVuSans-2e" x="127.246094"/>
     <use xlink:href="#DejaVuSans-31" x="159.033203"/>
     <use xlink:href="#DejaVuSans-33" x="222.65625"/>
    </g>
    <!-- (OM = 20.37%) -->
    <g transform="translate(339.343229 74.731032)scale(0.07 -0.07)">
     <use xlink:href="#DejaVuSans-28"/>
     <use xlink:href="#DejaVuSans-4f" x="39.013672"/>
     <use xlink:href="#DejaVuSans-4d" x="117.724609"/>
     <use xlink:href="#DejaVuSans-20" x="204.003906"/>
     <use xlink:href="#DejaVuSans-3d" x="235.791016"/>
     <use xlink:href="#DejaVuSans-20" x="319.580078"/>
     <use xlink:href="#DejaVuSans-32" x="351.367188"/>
     <use xlink:href="#DejaVuSans-30" x="414.990234"/>
     <use xlink:href="#DejaVuSans-2e" x="478.613281"/>
     <use xlink:href="#DejaVuSans-33" x="510.400391"/>
     <use xlink:href="#DejaVuSans-37" x="574.023438"/>
     <use xlink:href="#DejaVuSans-25" x="637.646484"/>
     <use xlink:href="#DejaVuSans-29" x="732.666016"/>
    </g>
   </g>
   <g id="text_39">
    <!-- 107.1 -->
    <g transform="translate(73.62263 34.095385)scale(0.11 -0.11)">
     <defs>
      <path id="DejaVuSans-Bold-31" d="M 750 831 
L 1813 831 
L 1813 3847 
L 722 3622 
L 722 4441 
L 1806 4666 
L 2950 4666 
L 2950 831 
L 4013 831 
L 4013 0 
L 750 0 
L 750 831 
z
" transform="scale(0.015625)"/>
      <path id="DejaVuSans-Bold-30" d="M 2944 2338 
Q 2944 3213 2780 3570 
Q 2616 3928 2228 3928 
Q 1841 3928 1675 3570 
Q 1509 3213 1509 2338 
Q 1509 1453 1675 1090 
Q 1841 728 2228 728 
Q 2613 728 2778 1090 
Q 2944 1453 2944 2338 
z
M 4147 2328 
Q 4147 1169 3647 539 
Q 3147 -91 2228 -91 
Q 1306 -91 806 539 
Q 306 1169 306 2328 
Q 306 3491 806 4120 
Q 1306 4750 2228 4750 
Q 3147 4750 3647 4120 
Q 4147 3491 4147 2328 
z
" transform="scale(0.015625)"/>
      <path id="DejaVuSans-Bold-37" d="M 428 4666 
L 3944 4666 
L 3944 3988 
L 2125 0 
L 953 0 
L 2675 3781 
L 428 3781 
L 428 4666 
z
" transform="scale(0.015625)"/>
      <path id="DejaVuSans-Bold-2e" d="M 653 1209 
L 1778 1209 
L 1778 0 
L 653 0 
L 653 1209 
z
" transform="scale(0.015625)"/>
     </defs>
     <use xlink:href="#DejaVuSans-Bold-31"/>
     <use xlink:href="#DejaVuSans-Bold-30" x="69.580078"/>
     <use xlink:href="#DejaVuSans-Bold-37" x="139.160156"/>
     <use xlink:href="#DejaVuSans-Bold-2e" x="208.740234"/>
     <use xlink:href="#DejaVuSans-Bold-31" x="246.728516"/>
    </g>
   </g>
   <g id="text_40">
    <!-- 107.1 -->
    <g transform="translate(142.455964 34.095385)scale(0.11 -0.11)">
     <use xlink:href="#DejaVuSans-Bold-31"/>
     <use xlink:href="#DejaVuSans-Bold-30" x="69.580078"/>
     <use xlink:href="#DejaVuSans-Bold-37" x="139.160156"/>
     <use xlink:href="#DejaVuSans-Bold-2e" x="208.740234"/>
     <use xlink:href="#DejaVuSans-Bold-31" x="246.728516"/>
    </g>
   </g>
   <g id="text_41">
    <!-- 107.1 -->
    <g transform="translate(211.289297 34.095385)scale(0.11 -0.11)">
     <use xlink:href="#DejaVuSans-Bold-31"/>
     <use xlink:href="#DejaVuSans-Bold-30" x="69.580078"/>
     <use xlink:href="#DejaVuSans-Bold-37" x="139.160156"/>
     <use xlink:href="#DejaVuSans-Bold-2e" x="208.740234"/>
     <use xlink:href="#DejaVuSans-Bold-31" x="246.728516"/>
    </g>
   </g>
   <g id="text_42">
    <!-- 107.1 -->
    <g transform="translate(280.12263 34.095385)scale(0.11 -0.11)">
     <use xlink:href="#DejaVuSans-Bold-31"/>
     <use xlink:href="#DejaVuSans-Bold-30" x="69.580078"/>
     <use xlink:href="#DejaVuSans-Bold-37" x="139.160156"/>
     <use xlink:href="#DejaVuSans-Bold-2e" x="208.740234"/>
     <use xlink:href="#DejaVuSans-Bold-31" x="246.728516"/>
    </g>
   </g>
   <g id="text_43">
    <!-- 107.1 -->
    <g transform="translate(348.955964 34.095385)scale(0.11 -0.11)">
     <use xlink:href="#DejaVuSans-Bold-31"/>
     <use xlink:href="#DejaVuSans-Bold-30" x="69.580078"/>
     <use xlink:href="#DejaVuSans-Bold-37" x="139.160156"/>
     <use xlink:href="#DejaVuSans-Bold-2e" x="208.740234"/>
     <use xlink:href="#DejaVuSans-Bold-31" x="246.728516"/>
    </g>
   </g>
   <g id="text_44">
    <!-- Target IRR vs. Technical Life (Fixed LFP Price or Operating Margin) -->
    <g transform="translate(32.08625 16.318125)scale(0.12 -0.12)">
     <defs>
      <path id="DejaVuSans-67" d="M 2906 1791 
Q 2906 2416 2648 2759 
Q 2391 3103 1925 3103 
Q 1463 3103 1205 2759 
Q 947 2416 947 1791 
Q 947 1169 1205 825 
Q 1463 481 1925 481 
Q 2391 481 2648 825 
Q 2906 1169 2906 1791 
z
M 3481 434 
Q 3481 -459 3084 -895 
Q 2688 -1331 1869 -1331 
Q 1566 -1331 1297 -1286 
Q 1028 -1241 775 -1147 
L 775 -588 
Q 1028 -725 1275 -790 
Q 1522 -856 1778 -856 
Q 2344 -856 2625 -561 
Q 2906 -266 2906 331 
L 2906 616 
Q 2728 306 2450 153 
Q 2172 0 1784 0 
Q 1141 0 747 490 
Q 353 981 353 1791 
Q 353 2603 747 3093 
Q 1141 3584 1784 3584 
Q 2172 3584 2450 3431 
Q 2728 3278 2906 2969 
L 2906 3500 
L 3481 3500 
L 3481 434 
z
" transform="scale(0.015625)"/>
      <path id="DejaVuSans-49" d="M 628 4666 
L 1259 4666 
L 1259 0 
L 628 0 
L 628 4666 
z
" transform="scale(0.015625)"/>
      <path id="DejaVuSans-52" d="M 2841 2188 
Q 3044 2119 3236 1894 
Q 3428 1669 3622 1275 
L 4263 0 
L 3584 0 
L 2988 1197 
Q 2756 1666 2539 1819 
Q 2322 1972 1947 1972 
L 1259 1972 
L 1259 0 
L 628 0 
L 628 4666 
L 2053 4666 
Q 2853 4666 3247 4331 
Q 3641 3997 3641 3322 
Q 3641 2881 3436 2590 
Q 3231 2300 2841 2188 
z
M 1259 4147 
L 1259 2491 
L 2053 2491 
Q 2509 2491 2742 2702 
Q 2975 2913 2975 3322 
Q 2975 3731 2742 3939 
Q 2509 4147 2053 4147 
L 1259 4147 
z
" transform="scale(0.015625)"/>
      <path id="DejaVuSans-76" d="M 191 3500 
L 800 3500 
L 1894 563 
L 2988 3500 
L 3597 3500 
L 2284 0 
L 1503 0 
L 191 3500 
z
" transform="scale(0.015625)"/>
      <path id="DejaVuSans-73" d="M 2834 3397 
L 2834 2853 
Q 2591 2978 2328 3040 
Q 2066 3103 1784 3103 
Q 1356 3103 1142 2972 
Q 928 2841 928 2578 
Q 928 2378 1081 2264 
Q 1234 2150 1697 2047 
L 1894 2003 
Q 2506 1872 2764 1633 
Q 3022 1394 3022 966 
Q 3022 478 2636 193 
Q 2250 -91 1575 -91 
Q 1294 -91 989 -36 
Q 684 19 347 128 
L 347 722 
Q 666 556 975 473 
Q 1284 391 1588 391 
Q 1994 391 2212 530 
Q 2431 669 2431 922 
Q 2431 1156 2273 1281 
Q 2116 1406 1581 1522 
L 1381 1569 
Q 847 1681 609 1914 
Q 372 2147 372 2553 
Q 372 3047 722 3315 
Q 1072 3584 1716 3584 
Q 2034 3584 2315 3537 
Q 2597 3491 2834 3397 
z
" transform="scale(0.015625)"/>
      <path id="DejaVuSans-78" d="M 3513 3500 
L 2247 1797 
L 3578 0 
L 2900 0 
L 1881 1375 
L 863 0 
L 184 0 
L 1544 1831 
L 300 3500 
L 978 3500 
L 1906 2253 
L 2834 3500 
L 3513 3500 
z
" transform="scale(0.015625)"/>
      <path id="DejaVuSans-64" d="M 2906 2969 
L 2906 4863 
L 3481 4863 
L 3481 0 
L 2906 0 
L 2906 525 
Q 2725 213 2448 61 
Q 2172 -91 1784 -91 
Q 1150 -91 751 415 
Q 353 922 353 1747 
Q 353 2572 751 3078 
Q 1150 3584 1784 3584 
Q 2172 3584 2448 3432 
Q 2725 3281 2906 2969 
z
M 947 1747 
Q 947 1113 1208 752 
Q 1469 391 1925 391 
Q 2381 391 2643 752 
Q 2906 1113 2906 1747 
Q 2906 2381 2643 2742 
Q 2381 3103 1925 3103 
Q 1469 3103 1208 2742 
Q 947 2381 947 1747 
z
" transform="scale(0.015625)"/>
      <path id="DejaVuSans-6f" d="M 1959 3097 
Q 1497 3097 1228 2736 
Q 959 2375 959 1747 
Q 959 1119 1226 758 
Q 1494 397 1959 397 
Q 2419 397 2687 759 
Q 2956 1122 2956 1747 
Q 2956 2369 2687 2733 
Q 2419 3097 1959 3097 
z
M 1959 3584 
Q 2709 3584 3137 3096 
Q 3566 2609 3566 1747 
Q 3566 888 3137 398 
Q 2709 -91 1959 -91 
Q 1206 -91 779 398 
Q 353 888 353 1747 
Q 353 2609 779 3096 
Q 1206 3584 1959 3584 
z
" transform="scale(0.015625)"/>
      <path id="DejaVuSans-70" d="M 1159 525 
L 1159 -1331 
L 581 -1331 
L 581 3500 
L 1159 3500 
L 1159 2969 
Q 1341 3281 1617 3432 
Q 1894 3584 2278 3584 
Q 2916 3584 3314 3078 
Q 3713 2572 3713 1747 
Q 3713 922 3314 415 
Q 2916 -91 2278 -91 
Q 1894 -91 1617 61 
Q 1341 213 1159 525 
z
M 3116 1747 
Q 3116 2381 2855 2742 
Q 2594 3103 2138 3103 
Q 1681 3103 1420 2742 
Q 1159 2381 1159 1747 
Q 1159 1113 1420 752 
Q 1681 391 2138 391 
Q 2594 391 2855 752 
Q 3116 1113 3116 1747 
z
" transform="scale(0.015625)"/>
     </defs>
     <use xlink:href="#DejaVuSans-54"/>
     <use xlink:href="#DejaVuSans-61" x="44.583984"/>
     <use xlink:href="#DejaVuSans-72" x="105.863281"/>
     <use xlink:href="#DejaVuSans-67" x="145.226562"/>
     <use xlink:href="#DejaVuSans-65" x="208.703125"/>
     <use xlink:href="#DejaVuSans-74" x="270.226562"/>
     <use xlink:href="#DejaVuSans-20" x="309.435547"/>
     <use xlink:href="#DejaVuSans-49" x="341.222656"/>
     <use xlink:href="#DejaVuSans-52" x="370.714844"/>
     <use xlink:href="#DejaVuSans-52" x="440.197266"/>
     <use xlink:href="#DejaVuSans-20" x="509.679688"/>
     <use xlink:href="#DejaVuSans-76" x="541.466797"/>
     <use xlink:href="#DejaVuSans-73" x="600.646484"/>
     <use xlink:href="#DejaVuSans-2e" x="652.746094"/>
     <use xlink:href="#DejaVuSans-20" x="684.533203"/>
     <use xlink:href="#DejaVuSans-54" x="716.320312"/>
     <use xlink:href="#DejaVuSans-65" x="760.404297"/>
     <use xlink:href="#DejaVuSans-63" x="821.927734"/>
     <use xlink:href="#DejaVuSans-68" x="876.908203"/>
     <use xlink:href="#DejaVuSans-6e" x="940.287109"/>
     <use xlink:href="#DejaVuSans-69" x="1003.666016"/>
     <use xlink:href="#DejaVuSans-63" x="1031.449219"/>
     <use xlink:href="#DejaVuSans-61" x="1086.429688"/>
     <use xlink:href="#DejaVuSans-6c" x="1147.708984"/>
     <use xlink:href="#DejaVuSans-20" x="1175.492188"/>
     <use xlink:href="#DejaVuSans-4c" x="1207.279297"/>
     <use xlink:href="#DejaVuSans-69" x="1262.992188"/>
     <use xlink:href="#DejaVuSans-66" x="1290.775391"/>
     <use xlink:href="#DejaVuSans-65" x="1325.980469"/>
     <use xlink:href="#DejaVuSans-20" x="1387.503906"/>
     <use xlink:href="#DejaVuSans-28" x="1419.291016"/>
     <use xlink:href="#DejaVuSans-46" x="1458.304688"/>
     <use xlink:href="#DejaVuSans-69" x="1508.574219"/>
     <use xlink:href="#DejaVuSans-78" x="1536.357422"/>
     <use xlink:href="#DejaVuSans-65" x="1592.412109"/>
     <use xlink:href="#DejaVuSans-64" x="1653.935547"/>
     <use xlink:href="#DejaVuSans-20" x="1717.412109"/>
     <use xlink:href="#DejaVuSans-4c" x="1749.199219"/>
     <use xlink:href="#DejaVuSans-46" x="1804.912109"/>
     <use xlink:href="#DejaVuSans-50" x="1862.431641"/>
     <use xlink:href="#DejaVuSans-20" x="1922.734375"/>
     <use xlink:href="#DejaVuSans-50" x="1954.521484"/>
     <use xlink:href="#DejaVuSans-72" x="2013.074219"/>
     <use xlink:href="#DejaVuSans-69" x="2054.1875"/>
     <use xlink:href="#DejaVuSans-63" x="2081.970703"/>
     <use xlink:href="#DejaVuSans-65" x="2136.951172"/>
     <use xlink:href="#DejaVuSans-20" x="2198.474609"/>
     <use xlink:href="#DejaVuSans-6f" x="2230.261719"/>
     <use xlink:href="#DejaVuSans-72" x="2291.443359"/>
     <use xlink:href="#DejaVuSans-20" x="2332.556641"/>
     <use xlink:href="#DejaVuSans-4f" x="2364.34375"/>
     <use xlink:href="#DejaVuSans-70" x="2443.054688"/>
     <use xlink:href="#DejaVuSans-65" x="2506.53125"/>
     <use xlink:href="#DejaVuSans-72" x="2568.054688"/>
     <use xlink:href="#DejaVuSans-61" x="2609.167969"/>
     <use xlink:href="#DejaVuSans-74" x="2670.447266"/>
     <use xlink:href="#DejaVuSans-69" x="2709.65625"/>
     <use xlink:href="#DejaVuSans-6e" x="2737.439453"/>
     <use xlink:href="#DejaVuSans-67" x="2800.818359"/>
     <use xlink:href="#DejaVuSans-20" x="2864.294922"/>
     <use xlink:href="#DejaVuSans-4d" x="2896.082031"/>
     <use xlink:href="#DejaVuSans-61" x="2982.361328"/>
     <use xlink:href="#DejaVuSans-72" x="3043.640625"/>
     <use xlink:href="#DejaVuSans-67" x="3083.003906"/>
     <use xlink:href="#DejaVuSans-69" x="3146.480469"/>
     <use xlink:href="#DejaVuSans-6e" x="3174.263672"/>
     <use xlink:href="#DejaVuSans-29" x="3237.642578"/>
    </g>
   </g>
   <g id="legend_1">
    <g id="patch_32">
     <path d="M 435.577625 118.386875 
L 554.908875 118.386875 
Q 556.908875 118.386875 556.908875 116.386875 
L 556.908875 29.318125 
Q 556.908875 27.318125 554.908875 27.318125 
L 435.577625 27.318125 
Q 433.577625 27.318125 433.577625 29.318125 
L 433.577625 116.386875 
Q 433.577625 118.386875 435.577625 118.386875 
z
" style="fill: #ffffff; opacity: 0.8; stroke: #cccccc; stroke-linejoin: miter"/>
    </g>
    <g id="text_45">
     <!-- Cost Component -->
     <g transform="translate(453.509656 38.916563)scale(0.1 -0.1)">
      <defs>
       <path id="DejaVuSans-6d" d="M 3328 2828 
Q 3544 3216 3844 3400 
Q 4144 3584 4550 3584 
Q 5097 3584 5394 3201 
Q 5691 2819 5691 2113 
L 5691 0 
L 5113 0 
L 5113 2094 
Q 5113 2597 4934 2840 
Q 4756 3084 4391 3084 
Q 3944 3084 3684 2787 
Q 3425 2491 3425 1978 
L 3425 0 
L 2847 0 
L 2847 2094 
Q 2847 2600 2669 2842 
Q 2491 3084 2119 3084 
Q 1678 3084 1418 2786 
Q 1159 2488 1159 1978 
L 1159 0 
L 581 0 
L 581 3500 
L 1159 3500 
L 1159 2956 
Q 1356 3278 1631 3431 
Q 1906 3584 2284 3584 
Q 2666 3584 2933 3390 
Q 3200 3197 3328 2828 
z
" transform="scale(0.015625)"/>
      </defs>
      <use xlink:href="#DejaVuSans-43"/>
      <use xlink:href="#DejaVuSans-6f" x="69.824219"/>
      <use xlink:href="#DejaVuSans-73" x="131.005859"/>
      <use xlink:href="#DejaVuSans-74" x="183.105469"/>
      <use xlink:href="#DejaVuSans-20" x="222.314453"/>
      <use xlink:href="#DejaVuSans-43" x="254.101562"/>
      <use xlink:href="#DejaVuSans-6f" x="323.925781"/>
      <use xlink:href="#DejaVuSans-6d" x="385.107422"/>
      <use xlink:href="#DejaVuSans-70" x="482.519531"/>
      <use xlink:href="#DejaVuSans-6f" x="545.996094"/>
      <use xlink:href="#DejaVuSans-6e" x="607.177734"/>
      <use xlink:href="#DejaVuSans-65" x="670.556641"/>
      <use xlink:href="#DejaVuSans-6e" x="732.080078"/>
      <use xlink:href="#DejaVuSans-74" x="795.458984"/>
     </g>
    </g>
    <g id="patch_33">
     <path d="M 437.577625 53.594688 
L 457.577625 53.594688 
L 457.577625 46.594688 
L 437.577625 46.594688 
z
" style="fill: #4c72b0; stroke: #000000; stroke-linejoin: miter"/>
    </g>
    <g id="text_46">
     <!-- Materials -->
     <g transform="translate(465.577625 53.594688)scale(0.1 -0.1)">
      <use xlink:href="#DejaVuSans-4d"/>
      <use xlink:href="#DejaVuSans-61" x="86.279297"/>
      <use xlink:href="#DejaVuSans-74" x="147.558594"/>
      <use xlink:href="#DejaVuSans-65" x="186.767578"/>
      <use xlink:href="#DejaVuSans-72" x="248.291016"/>
      <use xlink:href="#DejaVuSans-69" x="289.404297"/>
      <use xlink:href="#DejaVuSans-61" x="317.1875"/>
      <use xlink:href="#DejaVuSans-6c" x="378.466797"/>
      <use xlink:href="#DejaVuSans-73" x="406.25"/>
     </g>
    </g>
    <g id="patch_34">
     <path d="M 437.577625 68.272813 
L 457.577625 68.272813 
L 457.577625 61.272813 
L 437.577625 61.272813 
z
" style="fill: #55a868; stroke: #000000; stroke-linejoin: miter"/>
    </g>
    <g id="text_47">
     <!-- Labor -->
     <g transform="translate(465.577625 68.272813)scale(0.1 -0.1)">
      <defs>
       <path id="DejaVuSans-62" d="M 3116 1747 
Q 3116 2381 2855 2742 
Q 2594 3103 2138 3103 
Q 1681 3103 1420 2742 
Q 1159 2381 1159 1747 
Q 1159 1113 1420 752 
Q 1681 391 2138 391 
Q 2594 391 2855 752 
Q 3116 1113 3116 1747 
z
M 1159 2969 
Q 1341 3281 1617 3432 
Q 1894 3584 2278 3584 
Q 2916 3584 3314 3078 
Q 3713 2572 3713 1747 
Q 3713 922 3314 415 
Q 2916 -91 2278 -91 
Q 1894 -91 1617 61 
Q 1341 213 1159 525 
L 1159 0 
L 581 0 
L 581 4863 
L 1159 4863 
L 1159 2969 
z
" transform="scale(0.015625)"/>
      </defs>
      <use xlink:href="#DejaVuSans-4c"/>
      <use xlink:href="#DejaVuSans-61" x="55.712891"/>
      <use xlink:href="#DejaVuSans-62" x="116.992188"/>
      <use xlink:href="#DejaVuSans-6f" x="180.46875"/>
      <use xlink:href="#DejaVuSans-72" x="241.650391"/>
     </g>
    </g>
    <g id="patch_35">
     <path d="M 437.577625 82.950938 
L 457.577625 82.950938 
L 457.577625 75.950938 
L 437.577625 75.950938 
z
" style="fill: #c44e52; stroke: #000000; stroke-linejoin: miter"/>
    </g>
    <g id="text_48">
     <!-- Overhead -->
     <g transform="translate(465.577625 82.950938)scale(0.1 -0.1)">
      <use xlink:href="#DejaVuSans-4f"/>
      <use xlink:href="#DejaVuSans-76" x="78.710938"/>
      <use xlink:href="#DejaVuSans-65" x="137.890625"/>
      <use xlink:href="#DejaVuSans-72" x="199.414062"/>
      <use xlink:href="#DejaVuSans-68" x="238.777344"/>
      <use xlink:href="#DejaVuSans-65" x="302.15625"/>
      <use xlink:href="#DejaVuSans-61" x="363.679688"/>
      <use xlink:href="#DejaVuSans-64" x="424.958984"/>
     </g>
    </g>
    <g id="patch_36">
     <path d="M 437.577625 97.629063 
L 457.577625 97.629063 
L 457.577625 90.629063 
L 437.577625 90.629063 
z
" style="fill: #8172b3; stroke: #000000; stroke-linejoin: miter"/>
    </g>
    <g id="text_49">
     <!-- OpEx -->
     <g transform="translate(465.577625 97.629063)scale(0.1 -0.1)">
      <defs>
       <path id="DejaVuSans-45" d="M 628 4666 
L 3578 4666 
L 3578 4134 
L 1259 4134 
L 1259 2753 
L 3481 2753 
L 3481 2222 
L 1259 2222 
L 1259 531 
L 3634 531 
L 3634 0 
L 628 0 
L 628 4666 
z
" transform="scale(0.015625)"/>
      </defs>
      <use xlink:href="#DejaVuSans-4f"/>
      <use xlink:href="#DejaVuSans-70" x="78.710938"/>
      <use xlink:href="#DejaVuSans-45" x="142.1875"/>
      <use xlink:href="#DejaVuSans-78" x="205.371094"/>
     </g>
    </g>
    <g id="patch_37">
     <path d="M 437.577625 112.307188 
L 457.577625 112.307188 
L 457.577625 105.307188 
L 437.577625 105.307188 
z
" style="fill: #ccb974; stroke: #000000; stroke-linejoin: miter"/>
    </g>
    <g id="text_50">
     <!-- Operating Margin -->
     <g transform="translate(465.577625 112.307188)scale(0.1 -0.1)">
      <use xlink:href="#DejaVuSans-4f"/>
      <use xlink:href="#DejaVuSans-70" x="78.710938"/>
      <use xlink:href="#DejaVuSans-65" x="142.1875"/>
      <use xlink:href="#DejaVuSans-72" x="203.710938"/>
      <use xlink:href="#DejaVuSans-61" x="244.824219"/>
      <use xlink:href="#DejaVuSans-74" x="306.103516"/>
      <use xlink:href="#DejaVuSans-69" x="345.3125"/>
      <use xlink:href="#DejaVuSans-6e" x="373.095703"/>
      <use xlink:href="#DejaVuSans-67" x="436.474609"/>
      <use xlink:href="#DejaVuSans-20" x="499.951172"/>
      <use xlink:href="#DejaVuSans-4d" x="531.738281"/>
      <use xlink:href="#DejaVuSans-61" x="618.017578"/>
      <use xlink:href="#DejaVuSans-72" x="679.296875"/>
      <use xlink:href="#DejaVuSans-67" x="718.660156"/>
      <use xlink:href="#DejaVuSans-69" x="782.136719"/>
      <use xlink:href="#DejaVuSans-6e" x="809.919922"/>
     </g>
    </g>
   </g>
  </g>
  <g id="axes_2">
   <g id="matplotlib.axis_3">
    <g id="ytick_7">
     <g id="line2d_12">
      <defs>
       <path id="m682f165e25" d="M 0 0 
L 3.5 0 
" style="stroke: #ff0000; stroke-width: 0.8"/>
      </defs>
      <g>
       <use xlink:href="#m682f165e25" x="410.405625" y="368.970852" style="fill: #ff0000; stroke: #ff0000; stroke-width: 0.8"/>
      </g>
     </g>
     <g id="text_51">
      <!-- −8 -->
      <g style="fill: #ff0000" transform="translate(417.405625 372.770071)scale(0.1 -0.1)">
       <defs>
        <path id="DejaVuSans-2212" d="M 678 2272 
L 4684 2272 
L 4684 1741 
L 678 1741 
L 678 2272 
z
" transform="scale(0.015625)"/>
       </defs>
       <use xlink:href="#DejaVuSans-2212"/>
       <use xlink:href="#DejaVuSans-38" x="83.789062"/>
      </g>
     </g>
    </g>
    <g id="ytick_8">
     <g id="line2d_13">
      <g>
       <use xlink:href="#m682f165e25" x="410.405625" y="327.70267" style="fill: #ff0000; stroke: #ff0000; stroke-width: 0.8"/>
      </g>
     </g>
     <g id="text_52">
      <!-- −6 -->
      <g style="fill: #ff0000" transform="translate(417.405625 331.501889)scale(0.1 -0.1)">
       <use xlink:href="#DejaVuSans-2212"/>
       <use xlink:href="#DejaVuSans-36" x="83.789062"/>
      </g>
     </g>
    </g>
    <g id="ytick_9">
     <g id="line2d_14">
      <g>
       <use xlink:href="#m682f165e25" x="410.405625" y="286.434489" style="fill: #ff0000; stroke: #ff0000; stroke-width: 0.8"/>
      </g>
     </g>
     <g id="text_53">
      <!-- −4 -->
      <g style="fill: #ff0000" transform="translate(417.405625 290.233707)scale(0.1 -0.1)">
       <use xlink:href="#DejaVuSans-2212"/>
       <use xlink:href="#DejaVuSans-34" x="83.789062"/>
      </g>
     </g>
    </g>
    <g id="ytick_10">
     <g id="line2d_15">
      <g>
       <use xlink:href="#m682f165e25" x="410.405625" y="245.166307" style="fill: #ff0000; stroke: #ff0000; stroke-width: 0.8"/>
      </g>
     </g>
     <g id="text_54">
      <!-- −2 -->
      <g style="fill: #ff0000" transform="translate(417.405625 248.965526)scale(0.1 -0.1)">
       <use xlink:href="#DejaVuSans-2212"/>
       <use xlink:href="#DejaVuSans-32" x="83.789062"/>
      </g>
     </g>
    </g>
    <g id="ytick_11">
     <g id="line2d_16">
      <g>
       <use xlink:href="#m682f165e25" x="410.405625" y="203.898125" style="fill: #ff0000; stroke: #ff0000; stroke-width: 0.8"/>
      </g>
     </g>
     <g id="text_55">
      <!-- 0 -->
      <g style="fill: #ff0000" transform="translate(417.405625 207.697344)scale(0.1 -0.1)">
       <use xlink:href="#DejaVuSans-30"/>
      </g>
     </g>
    </g>
    <g id="ytick_12">
     <g id="line2d_17">
      <g>
       <use xlink:href="#m682f165e25" x="410.405625" y="162.629943" style="fill: #ff0000; stroke: #ff0000; stroke-width: 0.8"/>
      </g>
     </g>
     <g id="text_56">
      <!-- 2 -->
      <g style="fill: #ff0000" transform="translate(417.405625 166.429162)scale(0.1 -0.1)">
       <use xlink:href="#DejaVuSans-32"/>
      </g>
     </g>
    </g>
    <g id="ytick_13">
     <g id="line2d_18">
      <g>
       <use xlink:href="#m682f165e25" x="410.405625" y="121.361761" style="fill: #ff0000; stroke: #ff0000; stroke-width: 0.8"/>
      </g>
     </g>
     <g id="text_57">
      <!-- 4 -->
      <g style="fill: #ff0000" transform="translate(417.405625 125.16098)scale(0.1 -0.1)">
       <use xlink:href="#DejaVuSans-34"/>
      </g>
     </g>
    </g>
    <g id="ytick_14">
     <g id="line2d_19">
      <g>
       <use xlink:href="#m682f165e25" x="410.405625" y="80.09358" style="fill: #ff0000; stroke: #ff0000; stroke-width: 0.8"/>
      </g>
     </g>
     <g id="text_58">
      <!-- 6 -->
      <g style="fill: #ff0000" transform="translate(417.405625 83.892798)scale(0.1 -0.1)">
       <use xlink:href="#DejaVuSans-36"/>
      </g>
     </g>
    </g>
    <g id="ytick_15">
     <g id="line2d_20">
      <g>
       <use xlink:href="#m682f165e25" x="410.405625" y="38.825398" style="fill: #ff0000; stroke: #ff0000; stroke-width: 0.8"/>
      </g>
     </g>
     <g id="text_59">
      <!-- 8 -->
      <g style="fill: #ff0000" transform="translate(417.405625 42.624616)scale(0.1 -0.1)">
       <use xlink:href="#DejaVuSans-38"/>
      </g>
     </g>
    </g>
    <g id="text_60">
     <!-- Levered IRR (%) -->
     <g style="fill: #ff0000" transform="translate(443.74625 244.156719)rotate(-90)scale(0.1 -0.1)">
      <use xlink:href="#DejaVuSans-4c"/>
      <use xlink:href="#DejaVuSans-65" x="53.962891"/>
      <use xlink:href="#DejaVuSans-76" x="115.486328"/>
      <use xlink:href="#DejaVuSans-65" x="174.666016"/>
      <use xlink:href="#DejaVuSans-72" x="236.189453"/>
      <use xlink:href="#DejaVuSans-65" x="275.052734"/>
      <use xlink:href="#DejaVuSans-64" x="336.576172"/>
      <use xlink:href="#DejaVuSans-20" x="400.052734"/>
      <use xlink:href="#DejaVuSans-49" x="431.839844"/>
      <use xlink:href="#DejaVuSans-52" x="461.332031"/>
      <use xlink:href="#DejaVuSans-52" x="530.814453"/>
      <use xlink:href="#DejaVuSans-20" x="600.296875"/>
      <use xlink:href="#DejaVuSans-28" x="632.083984"/>
      <use xlink:href="#DejaVuSans-25" x="671.097656"/>
      <use xlink:href="#DejaVuSans-29" x="766.117188"/>
     </g>
    </g>
   </g>
   <g id="line2d_21">
    <path d="M 91.018958 368.970852 
L 159.852292 203.898125 
L 228.685625 121.361761 
L 297.518958 80.09358 
L 366.352292 38.825398 
" clip-path="url(#p3365785077)" style="fill: none; stroke-dasharray: 5.55,2.4; stroke-dashoffset: 0; stroke: #ff0000; stroke-width: 1.5"/>
   </g>
   <g id="patch_38">
    <path d="M 46.965625 385.478125 
L 46.965625 22.318125 
" style="fill: none; stroke: #000000; stroke-width: 0.8; stroke-linejoin: miter; stroke-linecap: square"/>
   </g>
   <g id="patch_39">
    <path d="M 410.405625 385.478125 
L 410.405625 22.318125 
" style="fill: none; stroke: #000000; stroke-width: 0.8; stroke-linejoin: miter; stroke-linecap: square"/>
   </g>
   <g id="patch_40">
    <path d="M 46.965625 385.478125 
L 410.405625 385.478125 
" style="fill: none; stroke: #000000; stroke-width: 0.8; stroke-linejoin: miter; stroke-linecap: square"/>
   </g>
   <g id="patch_41">
    <path d="M 46.965625 22.318125 
L 410.405625 22.318125 
" style="fill: none; stroke: #000000; stroke-width: 0.8; stroke-linejoin: miter; stroke-linecap: square"/>
   </g>
   <g id="PathCollection_1">
    <defs>
     <path id="m7bea9274c6" d="M 0 3.708099 
C 0.983399 3.708099 1.926654 3.317391 2.622022 2.622022 
C 3.317391 1.926654 3.708099 0.983399 3.708099 0 
C 3.708099 -0.983399 3.317391 -1.926654 2.622022 -2.622022 
C 1.926654 -3.317391 0.983399 -3.708099 0 -3.708099 
C -0.983399 -3.708099 -1.926654 -3.317391 -2.622022 -2.622022 
C -3.317391 -1.926654 -3.708099 -0.983399 -3.708099 0 
C -3.708099 0.983399 -3.317391 1.926654 -2.622022 2.622022 
C -1.926654 3.317391 -0.983399 3.708099 0 3.708099 
z
" style="stroke: #000000"/>
    </defs>
    <g clip-path="url(#p3365785077)">
     <use xlink:href="#m7bea9274c6" x="91.018958" y="368.970852" style="fill: #ff0000; stroke: #000000"/>
     <use xlink:href="#m7bea9274c6" x="159.852292" y="203.898125" style="fill: #ff0000; stroke: #000000"/>
     <use xlink:href="#m7bea9274c6" x="228.685625" y="121.361761" style="fill: #ff0000; stroke: #000000"/>
     <use xlink:href="#m7bea9274c6" x="297.518958" y="80.09358" style="fill: #ff0000; stroke: #000000"/>
     <use xlink:href="#m7bea9274c6" x="366.352292" y="38.825398" style="fill: #ff0000; stroke: #000000"/>
    </g>
   </g>
  </g>
 </g>
 <defs>
  <clipPath id="p3365785077">
   <rect x="46.965625" y="22.318125" width="363.44" height="363.16"/>
  </clipPath>
 </defs>
</svg>
